<svg xmlns="http://www.w3.org/2000/svg" version="1.1" xmlns:xlink="http://www.w3.org/1999/xlink" xmlns:svgjs="http://svgjs.dev/svgjs" width="1280" height="720" preserveAspectRatio="none" viewBox="0 0 1280 720"><g mask="url(&quot;#SvgjsMask1691&quot;)" fill="none"><rect width="1280" height="720" x="0" y="0" fill="url(&quot;#SvgjsLinearGradient1692&quot;)"></rect><g mask="url(&quot;#SvgjsMask1693&quot;)"><path d="M1030 550L1030 530L770 270L670 270" stroke-width="3.33" stroke="rgba(255, 255, 255, 1)"></path><path d="M1025 550 a5 5 0 1 0 10 0 a5 5 0 1 0 -10 0zM665 270 a5 5 0 1 0 10 0 a5 5 0 1 0 -10 0z" fill="rgba(255, 255, 255, 1)"></path><path d="M330 470L310 470L70 230L70 130L90 110" stroke-width="3.33" stroke="rgba(255, 255, 255, 1)"></path><path d="M325 470 a5 5 0 1 0 10 0 a5 5 0 1 0 -10 0zM85 110 a5 5 0 1 0 10 0 a5 5 0 1 0 -10 0z" fill="rgba(255, 255, 255, 1)"></path><path d="M690 470L690 550L850 710L990 710" stroke-width="3.33" stroke="rgba(255, 255, 255, 1)"></path><path d="M685 470 a5 5 0 1 0 10 0 a5 5 0 1 0 -10 0zM985 710 a5 5 0 1 0 10 0 a5 5 0 1 0 -10 0z" fill="rgba(255, 255, 255, 1)"></path><path d="M250 250L110 110L110 90L30 10L10 10" stroke-width="3.33" stroke="rgba(255, 255, 255, 1)"></path><path d="M245 250 a5 5 0 1 0 10 0 a5 5 0 1 0 -10 0zM5 10 a5 5 0 1 0 10 0 a5 5 0 1 0 -10 0z" fill="rgba(255, 255, 255, 1)"></path><path d="M110 430L250 430L390 570L490 570" stroke-width="3.33" stroke="rgba(255, 255, 255, 1)"></path><path d="M105 430 a5 5 0 1 0 10 0 a5 5 0 1 0 -10 0zM485 570 a5 5 0 1 0 10 0 a5 5 0 1 0 -10 0z" fill="rgba(255, 255, 255, 1)"></path><path d="M430 490L570 490L630 550L630 610L570 670L510 670" stroke-width="3.33" stroke="rgba(255, 255, 255, 1)"></path><path d="M425 490 a5 5 0 1 0 10 0 a5 5 0 1 0 -10 0zM505 670 a5 5 0 1 0 10 0 a5 5 0 1 0 -10 0z" fill="rgba(255, 255, 255, 1)"></path><path d="M910 130L550 130L530 150" stroke-width="3.33" stroke="rgba(255, 255, 255, 1)"></path><path d="M905 130 a5 5 0 1 0 10 0 a5 5 0 1 0 -10 0zM525 150 a5 5 0 1 0 10 0 a5 5 0 1 0 -10 0z" fill="rgba(255, 255, 255, 1)"></path><path d="M410 670L490 670L610 550" stroke-width="3.33" stroke="rgba(255, 255, 255, 1)"></path><path d="M405 670 a5 5 0 1 0 10 0 a5 5 0 1 0 -10 0zM605 550 a5 5 0 1 0 10 0 a5 5 0 1 0 -10 0z" fill="rgba(255, 255, 255, 1)"></path><path d="M1190 310L1270 230L1270 10" stroke-width="3.33" stroke="rgba(255, 255, 255, 1)"></path><path d="M1185 310 a5 5 0 1 0 10 0 a5 5 0 1 0 -10 0zM1265 10 a5 5 0 1 0 10 0 a5 5 0 1 0 -10 0z" fill="rgba(255, 255, 255, 1)"></path><path d="M350 150L230 30L70 30L50 10" stroke-width="3.33" stroke="rgba(255, 255, 255, 1)"></path><path d="M345 150 a5 5 0 1 0 10 0 a5 5 0 1 0 -10 0zM45 10 a5 5 0 1 0 10 0 a5 5 0 1 0 -10 0z" fill="rgba(255, 255, 255, 1)"></path><path d="M290 650L50 410L50 270" stroke-width="3.33" stroke="rgba(255, 255, 255, 1)"></path><path d="M285 650 a5 5 0 1 0 10 0 a5 5 0 1 0 -10 0zM45 270 a5 5 0 1 0 10 0 a5 5 0 1 0 -10 0z" fill="rgba(255, 255, 255, 1)"></path><path d="M570 10L950 10" stroke-width="3.33" stroke="rgba(255, 255, 255, 1)"></path><path d="M565 10 a5 5 0 1 0 10 0 a5 5 0 1 0 -10 0zM945 10 a5 5 0 1 0 10 0 a5 5 0 1 0 -10 0z" fill="rgba(255, 255, 255, 1)"></path><path d="M230 110L190 150L170 150L130 110L130 50" stroke-width="3.33" stroke="rgba(255, 255, 255, 1)"></path><path d="M225 110 a5 5 0 1 0 10 0 a5 5 0 1 0 -10 0zM125 50 a5 5 0 1 0 10 0 a5 5 0 1 0 -10 0z" fill="rgba(255, 255, 255, 1)"></path><path d="M10 490L50 450L50 430L10 390L10 110" stroke-width="3.33" stroke="rgba(255, 255, 255, 1)"></path><path d="M5 490 a5 5 0 1 0 10 0 a5 5 0 1 0 -10 0zM5 110 a5 5 0 1 0 10 0 a5 5 0 1 0 -10 0z" fill="rgba(255, 255, 255, 1)"></path><path d="M830 510L990 510L1010 530L1010 570L1150 710L1170 710" stroke-width="3.33" stroke="rgba(255, 255, 255, 1)"></path><path d="M825 510 a5 5 0 1 0 10 0 a5 5 0 1 0 -10 0zM1165 710 a5 5 0 1 0 10 0 a5 5 0 1 0 -10 0z" fill="rgba(255, 255, 255, 1)"></path><path d="M190 710L250 650L270 650L330 710L570 710" stroke-width="3.33" stroke="rgba(255, 255, 255, 1)"></path><path d="M185 710 a5 5 0 1 0 10 0 a5 5 0 1 0 -10 0zM565 710 a5 5 0 1 0 10 0 a5 5 0 1 0 -10 0z" fill="rgba(255, 255, 255, 1)"></path><path d="M30 610L90 670L90 690L70 710L10 710" stroke-width="3.33" stroke="rgba(255, 255, 255, 1)"></path><path d="M25 610 a5 5 0 1 0 10 0 a5 5 0 1 0 -10 0zM5 710 a5 5 0 1 0 10 0 a5 5 0 1 0 -10 0z" fill="rgba(255, 255, 255, 1)"></path><path d="M690 30L610 110L370 110L310 50" stroke-width="3.33" stroke="rgba(255, 255, 255, 1)"></path><path d="M685 30 a5 5 0 1 0 10 0 a5 5 0 1 0 -10 0zM305 50 a5 5 0 1 0 10 0 a5 5 0 1 0 -10 0z" fill="rgba(255, 255, 255, 1)"></path><path d="M670 430L390 150L370 150L290 70" stroke-width="3.33" stroke="rgba(255, 255, 255, 1)"></path><path d="M665 430 a5 5 0 1 0 10 0 a5 5 0 1 0 -10 0zM285 70 a5 5 0 1 0 10 0 a5 5 0 1 0 -10 0z" fill="rgba(255, 255, 255, 1)"></path><path d="M610 710L590 690L330 690L310 670L310 590" stroke-width="3.33" stroke="rgba(255, 255, 255, 1)"></path><path d="M605 710 a5 5 0 1 0 10 0 a5 5 0 1 0 -10 0zM305 590 a5 5 0 1 0 10 0 a5 5 0 1 0 -10 0z" fill="rgba(255, 255, 255, 1)"></path><path d="M250 670L210 710" stroke-width="3.33" stroke="rgba(255, 255, 255, 1)"></path><path d="M245 670 a5 5 0 1 0 10 0 a5 5 0 1 0 -10 0zM205 710 a5 5 0 1 0 10 0 a5 5 0 1 0 -10 0z" fill="rgba(255, 255, 255, 1)"></path><path d="M510 90L610 90L670 30" stroke-width="3.33" stroke="rgba(255, 255, 255, 1)"></path><path d="M505 90 a5 5 0 1 0 10 0 a5 5 0 1 0 -10 0zM665 30 a5 5 0 1 0 10 0 a5 5 0 1 0 -10 0z" fill="rgba(255, 255, 255, 1)"></path><path d="M790 110L670 110L650 90" stroke-width="3.33" stroke="rgba(255, 255, 255, 1)"></path><path d="M785 110 a5 5 0 1 0 10 0 a5 5 0 1 0 -10 0zM645 90 a5 5 0 1 0 10 0 a5 5 0 1 0 -10 0z" fill="rgba(255, 255, 255, 1)"></path><path d="M1090 350L990 450L990 470L1230 710L1250 710" stroke-width="3.33" stroke="rgba(255, 255, 255, 1)"></path><path d="M1085 350 a5 5 0 1 0 10 0 a5 5 0 1 0 -10 0zM1245 710 a5 5 0 1 0 10 0 a5 5 0 1 0 -10 0z" fill="rgba(255, 255, 255, 1)"></path><path d="M970 190L930 150L930 30" stroke-width="3.33" stroke="rgba(255, 255, 255, 1)"></path><path d="M965 190 a5 5 0 1 0 10 0 a5 5 0 1 0 -10 0zM925 30 a5 5 0 1 0 10 0 a5 5 0 1 0 -10 0z" fill="rgba(255, 255, 255, 1)"></path><path d="M590 370L610 390L610 510L770 670L790 670L830 710" stroke-width="3.33" stroke="rgba(255, 255, 255, 1)"></path><path d="M585 370 a5 5 0 1 0 10 0 a5 5 0 1 0 -10 0zM825 710 a5 5 0 1 0 10 0 a5 5 0 1 0 -10 0z" fill="rgba(255, 255, 255, 1)"></path><path d="M1010 210L950 210L890 150L630 150" stroke-width="3.33" stroke="rgba(255, 255, 255, 1)"></path><path d="M1005 210 a5 5 0 1 0 10 0 a5 5 0 1 0 -10 0zM625 150 a5 5 0 1 0 10 0 a5 5 0 1 0 -10 0z" fill="rgba(255, 255, 255, 1)"></path><path d="M70 530L110 490" stroke-width="3.33" stroke="rgba(255, 255, 255, 1)"></path><path d="M65 530 a5 5 0 1 0 10 0 a5 5 0 1 0 -10 0zM105 490 a5 5 0 1 0 10 0 a5 5 0 1 0 -10 0z" fill="rgba(255, 255, 255, 1)"></path><path d="M230 610L170 610L110 670L110 710" stroke-width="3.33" stroke="rgba(255, 255, 255, 1)"></path><path d="M225 610 a5 5 0 1 0 10 0 a5 5 0 1 0 -10 0zM105 710 a5 5 0 1 0 10 0 a5 5 0 1 0 -10 0z" fill="rgba(255, 255, 255, 1)"></path><path d="M490 170L530 130" stroke-width="3.33" stroke="rgba(255, 255, 255, 1)"></path><path d="M485 170 a5 5 0 1 0 10 0 a5 5 0 1 0 -10 0zM525 130 a5 5 0 1 0 10 0 a5 5 0 1 0 -10 0z" fill="rgba(255, 255, 255, 1)"></path><path d="M30 450L10 430L10 410" stroke-width="3.33" stroke="rgba(255, 255, 255, 1)"></path><path d="M25 450 a5 5 0 1 0 10 0 a5 5 0 1 0 -10 0zM5 410 a5 5 0 1 0 10 0 a5 5 0 1 0 -10 0z" fill="rgba(255, 255, 255, 1)"></path><path d="M210 10L70 10" stroke-width="3.33" stroke="rgba(255, 255, 255, 1)"></path><path d="M205 10 a5 5 0 1 0 10 0 a5 5 0 1 0 -10 0zM65 10 a5 5 0 1 0 10 0 a5 5 0 1 0 -10 0z" fill="rgba(255, 255, 255, 1)"></path><path d="M1270 330L1270 710" stroke-width="3.33" stroke="rgba(255, 255, 255, 1)"></path><path d="M1265 330 a5 5 0 1 0 10 0 a5 5 0 1 0 -10 0zM1265 710 a5 5 0 1 0 10 0 a5 5 0 1 0 -10 0z" fill="rgba(255, 255, 255, 1)"></path><path d="M1070 210L1210 70L1250 70" stroke-width="3.33" stroke="rgba(255, 255, 255, 1)"></path><path d="M1065 210 a5 5 0 1 0 10 0 a5 5 0 1 0 -10 0zM1245 70 a5 5 0 1 0 10 0 a5 5 0 1 0 -10 0z" fill="rgba(255, 255, 255, 1)"></path><path d="M430 410L590 410" stroke-width="3.33" stroke="rgba(255, 255, 255, 1)"></path><path d="M425 410 a5 5 0 1 0 10 0 a5 5 0 1 0 -10 0zM585 410 a5 5 0 1 0 10 0 a5 5 0 1 0 -10 0z" fill="rgba(255, 255, 255, 1)"></path><path d="M1190 270L1170 290L1170 390L1190 410L1190 490L1230 530L1230 650" stroke-width="3.33" stroke="rgba(255, 255, 255, 1)"></path><path d="M1185 270 a5 5 0 1 0 10 0 a5 5 0 1 0 -10 0zM1225 650 a5 5 0 1 0 10 0 a5 5 0 1 0 -10 0z" fill="rgba(255, 255, 255, 1)"></path><path d="M970 610L890 530L810 530L690 410L690 310" stroke-width="3.33" stroke="rgba(255, 255, 255, 1)"></path><path d="M965 610 a5 5 0 1 0 10 0 a5 5 0 1 0 -10 0zM685 310 a5 5 0 1 0 10 0 a5 5 0 1 0 -10 0z" fill="rgba(255, 255, 255, 1)"></path><path d="M10 670L70 670" stroke-width="3.33" stroke="rgba(255, 255, 255, 1)"></path><path d="M5 670 a5 5 0 1 0 10 0 a5 5 0 1 0 -10 0zM65 670 a5 5 0 1 0 10 0 a5 5 0 1 0 -10 0z" fill="rgba(255, 255, 255, 1)"></path><path d="M910 670L930 690L1110 690L1130 710" stroke-width="3.33" stroke="rgba(255, 255, 255, 1)"></path><path d="M905 670 a5 5 0 1 0 10 0 a5 5 0 1 0 -10 0zM1125 710 a5 5 0 1 0 10 0 a5 5 0 1 0 -10 0z" fill="rgba(255, 255, 255, 1)"></path><path d="M190 210L130 270" stroke-width="3.33" stroke="rgba(255, 255, 255, 1)"></path><path d="M185 210 a5 5 0 1 0 10 0 a5 5 0 1 0 -10 0zM125 270 a5 5 0 1 0 10 0 a5 5 0 1 0 -10 0z" fill="rgba(255, 255, 255, 1)"></path><path d="M150 550L70 630" stroke-width="3.33" stroke="rgba(255, 255, 255, 1)"></path><path d="M145 550 a5 5 0 1 0 10 0 a5 5 0 1 0 -10 0zM65 630 a5 5 0 1 0 10 0 a5 5 0 1 0 -10 0z" fill="rgba(255, 255, 255, 1)"></path><path d="M630 270L670 310L670 410" stroke-width="3.33" stroke="rgba(255, 255, 255, 1)"></path><path d="M625 270 a5 5 0 1 0 10 0 a5 5 0 1 0 -10 0zM665 410 a5 5 0 1 0 10 0 a5 5 0 1 0 -10 0z" fill="rgba(255, 255, 255, 1)"></path><path d="M1010 150L1010 10" stroke-width="3.33" stroke="rgba(255, 255, 255, 1)"></path><path d="M1005 150 a5 5 0 1 0 10 0 a5 5 0 1 0 -10 0zM1005 10 a5 5 0 1 0 10 0 a5 5 0 1 0 -10 0z" fill="rgba(255, 255, 255, 1)"></path><path d="M950 150L950 90L970 70L970 10" stroke-width="3.33" stroke="rgba(255, 255, 255, 1)"></path><path d="M945 150 a5 5 0 1 0 10 0 a5 5 0 1 0 -10 0zM965 10 a5 5 0 1 0 10 0 a5 5 0 1 0 -10 0z" fill="rgba(255, 255, 255, 1)"></path><path d="M450 90L370 10L230 10" stroke-width="3.33" stroke="rgba(255, 255, 255, 1)"></path><path d="M445 90 a5 5 0 1 0 10 0 a5 5 0 1 0 -10 0zM225 10 a5 5 0 1 0 10 0 a5 5 0 1 0 -10 0z" fill="rgba(255, 255, 255, 1)"></path><path d="M570 510L590 530L590 550L490 650L390 650L370 670L330 670" stroke-width="3.33" stroke="rgba(255, 255, 255, 1)"></path><path d="M565 510 a5 5 0 1 0 10 0 a5 5 0 1 0 -10 0zM325 670 a5 5 0 1 0 10 0 a5 5 0 1 0 -10 0z" fill="rgba(255, 255, 255, 1)"></path><path d="M1110 630L1190 710L1210 710" stroke-width="3.33" stroke="rgba(255, 255, 255, 1)"></path><path d="M1105 630 a5 5 0 1 0 10 0 a5 5 0 1 0 -10 0zM1205 710 a5 5 0 1 0 10 0 a5 5 0 1 0 -10 0z" fill="rgba(255, 255, 255, 1)"></path><path d="M50 70L70 90L90 90" stroke-width="3.33" stroke="rgba(255, 255, 255, 1)"></path><path d="M45 70 a5 5 0 1 0 10 0 a5 5 0 1 0 -10 0zM85 90 a5 5 0 1 0 10 0 a5 5 0 1 0 -10 0z" fill="rgba(255, 255, 255, 1)"></path><path d="M730 70L750 50L750 30" stroke-width="3.33" stroke="rgba(255, 255, 255, 1)"></path><path d="M725 70 a5 5 0 1 0 10 0 a5 5 0 1 0 -10 0zM745 30 a5 5 0 1 0 10 0 a5 5 0 1 0 -10 0z" fill="rgba(255, 255, 255, 1)"></path><path d="M250 290L210 330L210 350L270 410L410 410L470 470L530 470" stroke-width="3.33" stroke="rgba(255, 255, 255, 1)"></path><path d="M245 290 a5 5 0 1 0 10 0 a5 5 0 1 0 -10 0zM525 470 a5 5 0 1 0 10 0 a5 5 0 1 0 -10 0z" fill="rgba(255, 255, 255, 1)"></path><path d="M1210 650L1210 530L1090 410L1050 410L1010 450L1010 470L1050 510" stroke-width="3.33" stroke="rgba(255, 255, 255, 1)"></path><path d="M1205 650 a5 5 0 1 0 10 0 a5 5 0 1 0 -10 0zM1045 510 a5 5 0 1 0 10 0 a5 5 0 1 0 -10 0z" fill="rgba(255, 255, 255, 1)"></path><path d="M110 170L110 250" stroke-width="3.33" stroke="rgba(255, 255, 255, 1)"></path><path d="M105 170 a5 5 0 1 0 10 0 a5 5 0 1 0 -10 0zM105 250 a5 5 0 1 0 10 0 a5 5 0 1 0 -10 0z" fill="rgba(255, 255, 255, 1)"></path><path d="M750 590L710 550L710 450L690 430" stroke-width="3.33" stroke="rgba(255, 255, 255, 1)"></path><path d="M745 590 a5 5 0 1 0 10 0 a5 5 0 1 0 -10 0zM685 430 a5 5 0 1 0 10 0 a5 5 0 1 0 -10 0z" fill="rgba(255, 255, 255, 1)"></path><path d="M470 210L390 130L370 130" stroke-width="3.33" stroke="rgba(255, 255, 255, 1)"></path><path d="M465 210 a5 5 0 1 0 10 0 a5 5 0 1 0 -10 0zM365 130 a5 5 0 1 0 10 0 a5 5 0 1 0 -10 0z" fill="rgba(255, 255, 255, 1)"></path><path d="M870 570L750 570L730 550L730 470" stroke-width="3.33" stroke="rgba(255, 255, 255, 1)"></path><path d="M865 570 a5 5 0 1 0 10 0 a5 5 0 1 0 -10 0zM725 470 a5 5 0 1 0 10 0 a5 5 0 1 0 -10 0z" fill="rgba(255, 255, 255, 1)"></path><path d="M10 70L50 110L70 110" stroke-width="3.33" stroke="rgba(255, 255, 255, 1)"></path><path d="M5 70 a5 5 0 1 0 10 0 a5 5 0 1 0 -10 0zM65 110 a5 5 0 1 0 10 0 a5 5 0 1 0 -10 0z" fill="rgba(255, 255, 255, 1)"></path><path d="M1190 570L1110 570L1070 530L1070 430" stroke-width="3.33" stroke="rgba(255, 255, 255, 1)"></path><path d="M1185 570 a5 5 0 1 0 10 0 a5 5 0 1 0 -10 0zM1065 430 a5 5 0 1 0 10 0 a5 5 0 1 0 -10 0z" fill="rgba(255, 255, 255, 1)"></path><path d="M1050 110L1090 150L1090 170L890 370" stroke-width="3.33" stroke="rgba(255, 255, 255, 1)"></path><path d="M1045 110 a5 5 0 1 0 10 0 a5 5 0 1 0 -10 0zM885 370 a5 5 0 1 0 10 0 a5 5 0 1 0 -10 0z" fill="rgba(255, 255, 255, 1)"></path><path d="M1090 310L1070 330L1070 350L970 450" stroke-width="3.33" stroke="rgba(255, 255, 255, 1)"></path><path d="M1085 310 a5 5 0 1 0 10 0 a5 5 0 1 0 -10 0zM965 450 a5 5 0 1 0 10 0 a5 5 0 1 0 -10 0z" fill="rgba(255, 255, 255, 1)"></path><path d="M610 350L610 330L570 290L550 290L490 230L490 190L430 130L410 130" stroke-width="3.33" stroke="rgba(255, 255, 255, 1)"></path><path d="M605 350 a5 5 0 1 0 10 0 a5 5 0 1 0 -10 0zM405 130 a5 5 0 1 0 10 0 a5 5 0 1 0 -10 0z" fill="rgba(255, 255, 255, 1)"></path><path d="M990 250L970 230L790 230L770 250L630 250L610 270" stroke-width="3.33" stroke="rgba(255, 255, 255, 1)"></path><path d="M985 250 a5 5 0 1 0 10 0 a5 5 0 1 0 -10 0zM605 270 a5 5 0 1 0 10 0 a5 5 0 1 0 -10 0z" fill="rgba(255, 255, 255, 1)"></path><path d="M310 330L210 230L190 230L150 270L150 290L190 330" stroke-width="3.33" stroke="rgba(255, 255, 255, 1)"></path><path d="M305 330 a5 5 0 1 0 10 0 a5 5 0 1 0 -10 0zM185 330 a5 5 0 1 0 10 0 a5 5 0 1 0 -10 0z" fill="rgba(255, 255, 255, 1)"></path><path d="M750 90L890 90L910 110" stroke-width="3.33" stroke="rgba(255, 255, 255, 1)"></path><path d="M745 90 a5 5 0 1 0 10 0 a5 5 0 1 0 -10 0zM905 110 a5 5 0 1 0 10 0 a5 5 0 1 0 -10 0z" fill="rgba(255, 255, 255, 1)"></path><path d="M290 390L290 330L270 310L250 310L230 330L230 350L270 390" stroke-width="3.33" stroke="rgba(255, 255, 255, 1)"></path><path d="M285 390 a5 5 0 1 0 10 0 a5 5 0 1 0 -10 0zM265 390 a5 5 0 1 0 10 0 a5 5 0 1 0 -10 0z" fill="rgba(255, 255, 255, 1)"></path><path d="M1170 470L1170 410L1090 330" stroke-width="3.33" stroke="rgba(255, 255, 255, 1)"></path><path d="M1165 470 a5 5 0 1 0 10 0 a5 5 0 1 0 -10 0zM1085 330 a5 5 0 1 0 10 0 a5 5 0 1 0 -10 0z" fill="rgba(255, 255, 255, 1)"></path><path d="M910 390L910 370L930 350L1050 350" stroke-width="3.33" stroke="rgba(255, 255, 255, 1)"></path><path d="M905 390 a5 5 0 1 0 10 0 a5 5 0 1 0 -10 0zM1045 350 a5 5 0 1 0 10 0 a5 5 0 1 0 -10 0z" fill="rgba(255, 255, 255, 1)"></path><path d="M390 50L430 90" stroke-width="3.33" stroke="rgba(255, 255, 255, 1)"></path><path d="M385 50 a5 5 0 1 0 10 0 a5 5 0 1 0 -10 0zM425 90 a5 5 0 1 0 10 0 a5 5 0 1 0 -10 0z" fill="rgba(255, 255, 255, 1)"></path><path d="M670 670L630 710" stroke-width="3.33" stroke="rgba(255, 255, 255, 1)"></path><path d="M665 670 a5 5 0 1 0 10 0 a5 5 0 1 0 -10 0zM625 710 a5 5 0 1 0 10 0 a5 5 0 1 0 -10 0z" fill="rgba(255, 255, 255, 1)"></path><path d="M1230 370L1230 510L1250 530L1250 690" stroke-width="3.33" stroke="rgba(255, 255, 255, 1)"></path><path d="M1225 370 a5 5 0 1 0 10 0 a5 5 0 1 0 -10 0zM1245 690 a5 5 0 1 0 10 0 a5 5 0 1 0 -10 0z" fill="rgba(255, 255, 255, 1)"></path><path d="M970 490L870 490L830 450L750 450L710 410L710 290" stroke-width="3.33" stroke="rgba(255, 255, 255, 1)"></path><path d="M965 490 a5 5 0 1 0 10 0 a5 5 0 1 0 -10 0zM705 290 a5 5 0 1 0 10 0 a5 5 0 1 0 -10 0z" fill="rgba(255, 255, 255, 1)"></path><path d="M130 710L170 710" stroke-width="3.33" stroke="rgba(255, 255, 255, 1)"></path><path d="M125 710 a5 5 0 1 0 10 0 a5 5 0 1 0 -10 0zM165 710 a5 5 0 1 0 10 0 a5 5 0 1 0 -10 0z" fill="rgba(255, 255, 255, 1)"></path><path d="M590 70L630 30L650 30" stroke-width="3.33" stroke="rgba(255, 255, 255, 1)"></path><path d="M585 70 a5 5 0 1 0 10 0 a5 5 0 1 0 -10 0zM645 30 a5 5 0 1 0 10 0 a5 5 0 1 0 -10 0z" fill="rgba(255, 255, 255, 1)"></path><path d="M1270 270L1190 350L1190 390L1210 410L1210 490" stroke-width="3.33" stroke="rgba(255, 255, 255, 1)"></path><path d="M1265 270 a5 5 0 1 0 10 0 a5 5 0 1 0 -10 0zM1205 490 a5 5 0 1 0 10 0 a5 5 0 1 0 -10 0z" fill="rgba(255, 255, 255, 1)"></path><path d="M90 270L70 290L70 410L90 430" stroke-width="3.33" stroke="rgba(255, 255, 255, 1)"></path><path d="M85 270 a5 5 0 1 0 10 0 a5 5 0 1 0 -10 0zM85 430 a5 5 0 1 0 10 0 a5 5 0 1 0 -10 0z" fill="rgba(255, 255, 255, 1)"></path><path d="M970 670L930 670L850 590L770 590" stroke-width="3.33" stroke="rgba(255, 255, 255, 1)"></path><path d="M965 670 a5 5 0 1 0 10 0 a5 5 0 1 0 -10 0zM765 590 a5 5 0 1 0 10 0 a5 5 0 1 0 -10 0z" fill="rgba(255, 255, 255, 1)"></path><path d="M1130 250L1130 270L1110 290L1010 290L970 330L950 330" stroke-width="3.33" stroke="rgba(255, 255, 255, 1)"></path><path d="M1125 250 a5 5 0 1 0 10 0 a5 5 0 1 0 -10 0zM945 330 a5 5 0 1 0 10 0 a5 5 0 1 0 -10 0z" fill="rgba(255, 255, 255, 1)"></path><path d="M1250 470L1250 310L1270 290" stroke-width="3.33" stroke="rgba(255, 255, 255, 1)"></path><path d="M1245 470 a5 5 0 1 0 10 0 a5 5 0 1 0 -10 0zM1265 290 a5 5 0 1 0 10 0 a5 5 0 1 0 -10 0z" fill="rgba(255, 255, 255, 1)"></path><path d="M90 390L110 390L130 410L230 410" stroke-width="3.33" stroke="rgba(255, 255, 255, 1)"></path><path d="M85 390 a5 5 0 1 0 10 0 a5 5 0 1 0 -10 0zM225 410 a5 5 0 1 0 10 0 a5 5 0 1 0 -10 0z" fill="rgba(255, 255, 255, 1)"></path><path d="M970 650L1070 650L1090 670" stroke-width="3.33" stroke="rgba(255, 255, 255, 1)"></path><path d="M965 650 a5 5 0 1 0 10 0 a5 5 0 1 0 -10 0zM1085 670 a5 5 0 1 0 10 0 a5 5 0 1 0 -10 0z" fill="rgba(255, 255, 255, 1)"></path><path d="M970 250L970 270L890 350L870 350L790 270L790 250" stroke-width="3.33" stroke="rgba(255, 255, 255, 1)"></path><path d="M965 250 a5 5 0 1 0 10 0 a5 5 0 1 0 -10 0zM785 250 a5 5 0 1 0 10 0 a5 5 0 1 0 -10 0z" fill="rgba(255, 255, 255, 1)"></path><path d="M910 690L850 690L770 610" stroke-width="3.33" stroke="rgba(255, 255, 255, 1)"></path><path d="M905 690 a5 5 0 1 0 10 0 a5 5 0 1 0 -10 0zM765 610 a5 5 0 1 0 10 0 a5 5 0 1 0 -10 0z" fill="rgba(255, 255, 255, 1)"></path><path d="M1150 530L1130 550L1110 550L1090 530L1090 510L1130 470" stroke-width="3.33" stroke="rgba(255, 255, 255, 1)"></path><path d="M1145 530 a5 5 0 1 0 10 0 a5 5 0 1 0 -10 0zM1125 470 a5 5 0 1 0 10 0 a5 5 0 1 0 -10 0z" fill="rgba(255, 255, 255, 1)"></path><path d="M330 450L350 430L410 430L450 470" stroke-width="3.33" stroke="rgba(255, 255, 255, 1)"></path><path d="M325 450 a5 5 0 1 0 10 0 a5 5 0 1 0 -10 0zM445 470 a5 5 0 1 0 10 0 a5 5 0 1 0 -10 0z" fill="rgba(255, 255, 255, 1)"></path><path d="M310 210L310 310L390 390L590 390" stroke-width="3.33" stroke="rgba(255, 255, 255, 1)"></path><path d="M305 210 a5 5 0 1 0 10 0 a5 5 0 1 0 -10 0zM585 390 a5 5 0 1 0 10 0 a5 5 0 1 0 -10 0z" fill="rgba(255, 255, 255, 1)"></path><path d="M850 450L730 330L730 290" stroke-width="3.33" stroke="rgba(255, 255, 255, 1)"></path><path d="M845 450 a5 5 0 1 0 10 0 a5 5 0 1 0 -10 0zM725 290 a5 5 0 1 0 10 0 a5 5 0 1 0 -10 0z" fill="rgba(255, 255, 255, 1)"></path><path d="M870 330L890 330L950 270L950 250" stroke-width="3.33" stroke="rgba(255, 255, 255, 1)"></path><path d="M865 330 a5 5 0 1 0 10 0 a5 5 0 1 0 -10 0zM945 250 a5 5 0 1 0 10 0 a5 5 0 1 0 -10 0z" fill="rgba(255, 255, 255, 1)"></path><path d="M870 410L870 390L850 370L790 370L750 330L750 290" stroke-width="3.33" stroke="rgba(255, 255, 255, 1)"></path><path d="M865 410 a5 5 0 1 0 10 0 a5 5 0 1 0 -10 0zM745 290 a5 5 0 1 0 10 0 a5 5 0 1 0 -10 0z" fill="rgba(255, 255, 255, 1)"></path><path d="M230 210L190 170" stroke-width="3.33" stroke="rgba(255, 255, 255, 1)"></path><path d="M225 210 a5 5 0 1 0 10 0 a5 5 0 1 0 -10 0zM185 170 a5 5 0 1 0 10 0 a5 5 0 1 0 -10 0z" fill="rgba(255, 255, 255, 1)"></path><path d="M390 630L490 630L570 550L570 530L550 510L390 510" stroke-width="3.33" stroke="rgba(255, 255, 255, 1)"></path><path d="M385 630 a5 5 0 1 0 10 0 a5 5 0 1 0 -10 0zM385 510 a5 5 0 1 0 10 0 a5 5 0 1 0 -10 0z" fill="rgba(255, 255, 255, 1)"></path><path d="M270 490L230 450L110 450" stroke-width="3.33" stroke="rgba(255, 255, 255, 1)"></path><path d="M265 490 a5 5 0 1 0 10 0 a5 5 0 1 0 -10 0zM105 450 a5 5 0 1 0 10 0 a5 5 0 1 0 -10 0z" fill="rgba(255, 255, 255, 1)"></path><path d="M310 530L250 590" stroke-width="3.33" stroke="rgba(255, 255, 255, 1)"></path><path d="M305 530 a5 5 0 1 0 10 0 a5 5 0 1 0 -10 0zM245 590 a5 5 0 1 0 10 0 a5 5 0 1 0 -10 0z" fill="rgba(255, 255, 255, 1)"></path><path d="M690 90L730 50L730 30" stroke-width="3.33" stroke="rgba(255, 255, 255, 1)"></path><path d="M685 90 a5 5 0 1 0 10 0 a5 5 0 1 0 -10 0zM725 30 a5 5 0 1 0 10 0 a5 5 0 1 0 -10 0z" fill="rgba(255, 255, 255, 1)"></path><path d="M470 350L250 130L250 70L230 50L150 50" stroke-width="3.33" stroke="rgba(255, 255, 255, 1)"></path><path d="M465 350 a5 5 0 1 0 10 0 a5 5 0 1 0 -10 0zM145 50 a5 5 0 1 0 10 0 a5 5 0 1 0 -10 0z" fill="rgba(255, 255, 255, 1)"></path><path d="M1070 610L1030 570" stroke-width="3.33" stroke="rgba(255, 255, 255, 1)"></path><path d="M1065 610 a5 5 0 1 0 10 0 a5 5 0 1 0 -10 0zM1025 570 a5 5 0 1 0 10 0 a5 5 0 1 0 -10 0z" fill="rgba(255, 255, 255, 1)"></path><path d="M290 150L330 150L510 330L550 330L570 350L570 370" stroke-width="3.33" stroke="rgba(255, 255, 255, 1)"></path><path d="M285 150 a5 5 0 1 0 10 0 a5 5 0 1 0 -10 0zM565 370 a5 5 0 1 0 10 0 a5 5 0 1 0 -10 0z" fill="rgba(255, 255, 255, 1)"></path><path d="M170 210L170 190L110 130L90 130" stroke-width="3.33" stroke="rgba(255, 255, 255, 1)"></path><path d="M165 210 a5 5 0 1 0 10 0 a5 5 0 1 0 -10 0zM85 130 a5 5 0 1 0 10 0 a5 5 0 1 0 -10 0z" fill="rgba(255, 255, 255, 1)"></path><path d="M1090 110L1150 110L1250 10" stroke-width="3.33" stroke="rgba(255, 255, 255, 1)"></path><path d="M1085 110 a5 5 0 1 0 10 0 a5 5 0 1 0 -10 0zM1245 10 a5 5 0 1 0 10 0 a5 5 0 1 0 -10 0z" fill="rgba(255, 255, 255, 1)"></path><path d="M390 230L530 370L550 370" stroke-width="3.33" stroke="rgba(255, 255, 255, 1)"></path><path d="M385 230 a5 5 0 1 0 10 0 a5 5 0 1 0 -10 0zM545 370 a5 5 0 1 0 10 0 a5 5 0 1 0 -10 0z" fill="rgba(255, 255, 255, 1)"></path><path d="M110 290L210 390" stroke-width="3.33" stroke="rgba(255, 255, 255, 1)"></path><path d="M105 290 a5 5 0 1 0 10 0 a5 5 0 1 0 -10 0zM205 390 a5 5 0 1 0 10 0 a5 5 0 1 0 -10 0z" fill="rgba(255, 255, 255, 1)"></path><path d="M1130 210L1090 210L1070 230L1050 230L1010 270" stroke-width="3.33" stroke="rgba(255, 255, 255, 1)"></path><path d="M1125 210 a5 5 0 1 0 10 0 a5 5 0 1 0 -10 0zM1005 270 a5 5 0 1 0 10 0 a5 5 0 1 0 -10 0z" fill="rgba(255, 255, 255, 1)"></path><path d="M270 170L250 190L250 230L290 270L290 290" stroke-width="3.33" stroke="rgba(255, 255, 255, 1)"></path><path d="M265 170 a5 5 0 1 0 10 0 a5 5 0 1 0 -10 0zM285 290 a5 5 0 1 0 10 0 a5 5 0 1 0 -10 0z" fill="rgba(255, 255, 255, 1)"></path><path d="M1130 290L1130 350L1150 370" stroke-width="3.33" stroke="rgba(255, 255, 255, 1)"></path><path d="M1125 290 a5 5 0 1 0 10 0 a5 5 0 1 0 -10 0zM1145 370 a5 5 0 1 0 10 0 a5 5 0 1 0 -10 0z" fill="rgba(255, 255, 255, 1)"></path><path d="M110 510L130 510L150 530" stroke-width="3.33" stroke="rgba(255, 255, 255, 1)"></path><path d="M105 510 a5 5 0 1 0 10 0 a5 5 0 1 0 -10 0zM145 530 a5 5 0 1 0 10 0 a5 5 0 1 0 -10 0z" fill="rgba(255, 255, 255, 1)"></path><path d="M590 490L530 430L450 430" stroke-width="3.33" stroke="rgba(255, 255, 255, 1)"></path><path d="M585 490 a5 5 0 1 0 10 0 a5 5 0 1 0 -10 0zM445 430 a5 5 0 1 0 10 0 a5 5 0 1 0 -10 0z" fill="rgba(255, 255, 255, 1)"></path><path d="M1030 310L1010 310L990 330" stroke-width="3.33" stroke="rgba(255, 255, 255, 1)"></path><path d="M1025 310 a5 5 0 1 0 10 0 a5 5 0 1 0 -10 0zM985 330 a5 5 0 1 0 10 0 a5 5 0 1 0 -10 0z" fill="rgba(255, 255, 255, 1)"></path><path d="M650 170L710 230L770 230L830 170L890 170L930 210" stroke-width="3.33" stroke="rgba(255, 255, 255, 1)"></path><path d="M645 170 a5 5 0 1 0 10 0 a5 5 0 1 0 -10 0zM925 210 a5 5 0 1 0 10 0 a5 5 0 1 0 -10 0z" fill="rgba(255, 255, 255, 1)"></path><path d="M410 210L510 310L530 310" stroke-width="3.33" stroke="rgba(255, 255, 255, 1)"></path><path d="M405 210 a5 5 0 1 0 10 0 a5 5 0 1 0 -10 0zM525 310 a5 5 0 1 0 10 0 a5 5 0 1 0 -10 0z" fill="rgba(255, 255, 255, 1)"></path><path d="M570 230L590 250L610 250L650 210L670 210L690 230" stroke-width="3.33" stroke="rgba(255, 255, 255, 1)"></path><path d="M565 230 a5 5 0 1 0 10 0 a5 5 0 1 0 -10 0zM685 230 a5 5 0 1 0 10 0 a5 5 0 1 0 -10 0z" fill="rgba(255, 255, 255, 1)"></path><path d="M150 490L250 490L290 530" stroke-width="3.33" stroke="rgba(255, 255, 255, 1)"></path><path d="M145 490 a5 5 0 1 0 10 0 a5 5 0 1 0 -10 0zM285 530 a5 5 0 1 0 10 0 a5 5 0 1 0 -10 0z" fill="rgba(255, 255, 255, 1)"></path><path d="M650 610L650 570" stroke-width="3.33" stroke="rgba(255, 255, 255, 1)"></path><path d="M645 610 a5 5 0 1 0 10 0 a5 5 0 1 0 -10 0zM645 570 a5 5 0 1 0 10 0 a5 5 0 1 0 -10 0z" fill="rgba(255, 255, 255, 1)"></path><path d="M850 430L890 470L910 470L930 450" stroke-width="3.33" stroke="rgba(255, 255, 255, 1)"></path><path d="M845 430 a5 5 0 1 0 10 0 a5 5 0 1 0 -10 0zM925 450 a5 5 0 1 0 10 0 a5 5 0 1 0 -10 0z" fill="rgba(255, 255, 255, 1)"></path><path d="M530 570L550 550L550 530" stroke-width="3.33" stroke="rgba(255, 255, 255, 1)"></path><path d="M525 570 a5 5 0 1 0 10 0 a5 5 0 1 0 -10 0zM545 530 a5 5 0 1 0 10 0 a5 5 0 1 0 -10 0z" fill="rgba(255, 255, 255, 1)"></path><path d="M110 570L130 550L130 530" stroke-width="3.33" stroke="rgba(255, 255, 255, 1)"></path><path d="M105 570 a5 5 0 1 0 10 0 a5 5 0 1 0 -10 0zM125 530 a5 5 0 1 0 10 0 a5 5 0 1 0 -10 0z" fill="rgba(255, 255, 255, 1)"></path><path d="M410 370L430 350L430 330L330 230" stroke-width="3.33" stroke="rgba(255, 255, 255, 1)"></path><path d="M405 370 a5 5 0 1 0 10 0 a5 5 0 1 0 -10 0zM325 230 a5 5 0 1 0 10 0 a5 5 0 1 0 -10 0z" fill="rgba(255, 255, 255, 1)"></path><path d="M870 670L850 670L810 630L810 610" stroke-width="3.33" stroke="rgba(255, 255, 255, 1)"></path><path d="M865 670 a5 5 0 1 0 10 0 a5 5 0 1 0 -10 0zM805 610 a5 5 0 1 0 10 0 a5 5 0 1 0 -10 0z" fill="rgba(255, 255, 255, 1)"></path><path d="M430 610L490 610L510 590L510 530" stroke-width="3.33" stroke="rgba(255, 255, 255, 1)"></path><path d="M425 610 a5 5 0 1 0 10 0 a5 5 0 1 0 -10 0zM505 530 a5 5 0 1 0 10 0 a5 5 0 1 0 -10 0z" fill="rgba(255, 255, 255, 1)"></path><path d="M890 670L850 630L850 610" stroke-width="3.33" stroke="rgba(255, 255, 255, 1)"></path><path d="M885 670 a5 5 0 1 0 10 0 a5 5 0 1 0 -10 0zM845 610 a5 5 0 1 0 10 0 a5 5 0 1 0 -10 0z" fill="rgba(255, 255, 255, 1)"></path><path d="M1150 210L1150 150L1190 110L1250 110" stroke-width="3.33" stroke="rgba(255, 255, 255, 1)"></path><path d="M1145 210 a5 5 0 1 0 10 0 a5 5 0 1 0 -10 0zM1245 110 a5 5 0 1 0 10 0 a5 5 0 1 0 -10 0z" fill="rgba(255, 255, 255, 1)"></path><path d="M870 270L890 250L930 250" stroke-width="3.33" stroke="rgba(255, 255, 255, 1)"></path><path d="M865 270 a5 5 0 1 0 10 0 a5 5 0 1 0 -10 0zM925 250 a5 5 0 1 0 10 0 a5 5 0 1 0 -10 0z" fill="rgba(255, 255, 255, 1)"></path><path d="M590 150L630 190L650 190" stroke-width="3.33" stroke="rgba(255, 255, 255, 1)"></path><path d="M585 150 a5 5 0 1 0 10 0 a5 5 0 1 0 -10 0zM645 190 a5 5 0 1 0 10 0 a5 5 0 1 0 -10 0z" fill="rgba(255, 255, 255, 1)"></path><path d="M650 350L650 310L630 290L590 290L510 210L510 170" stroke-width="3.33" stroke="rgba(255, 255, 255, 1)"></path><path d="M645 350 a5 5 0 1 0 10 0 a5 5 0 1 0 -10 0zM505 170 a5 5 0 1 0 10 0 a5 5 0 1 0 -10 0z" fill="rgba(255, 255, 255, 1)"></path><path d="M1170 610L1150 610L1130 590" stroke-width="3.33" stroke="rgba(255, 255, 255, 1)"></path><path d="M1165 610 a5 5 0 1 0 10 0 a5 5 0 1 0 -10 0zM1125 590 a5 5 0 1 0 10 0 a5 5 0 1 0 -10 0z" fill="rgba(255, 255, 255, 1)"></path><path d="M50 550L90 590" stroke-width="3.33" stroke="rgba(255, 255, 255, 1)"></path><path d="M45 550 a5 5 0 1 0 10 0 a5 5 0 1 0 -10 0zM85 590 a5 5 0 1 0 10 0 a5 5 0 1 0 -10 0z" fill="rgba(255, 255, 255, 1)"></path><path d="M710 690L670 690L650 710" stroke-width="3.33" stroke="rgba(255, 255, 255, 1)"></path><path d="M705 690 a5 5 0 1 0 10 0 a5 5 0 1 0 -10 0zM645 710 a5 5 0 1 0 10 0 a5 5 0 1 0 -10 0z" fill="rgba(255, 255, 255, 1)"></path><path d="M690 610L670 610L610 670L610 690" stroke-width="3.33" stroke="rgba(255, 255, 255, 1)"></path><path d="M685 610 a5 5 0 1 0 10 0 a5 5 0 1 0 -10 0zM605 690 a5 5 0 1 0 10 0 a5 5 0 1 0 -10 0z" fill="rgba(255, 255, 255, 1)"></path><path d="M350 390L310 350" stroke-width="3.33" stroke="rgba(255, 255, 255, 1)"></path><path d="M345 390 a5 5 0 1 0 10 0 a5 5 0 1 0 -10 0zM305 350 a5 5 0 1 0 10 0 a5 5 0 1 0 -10 0z" fill="rgba(255, 255, 255, 1)"></path><path d="M370 290L410 330L410 350" stroke-width="3.33" stroke="rgba(255, 255, 255, 1)"></path><path d="M365 290 a5 5 0 1 0 10 0 a5 5 0 1 0 -10 0zM405 350 a5 5 0 1 0 10 0 a5 5 0 1 0 -10 0z" fill="rgba(255, 255, 255, 1)"></path><path d="M190 650L190 670L170 690L130 690" stroke-width="3.33" stroke="rgba(255, 255, 255, 1)"></path><path d="M185 650 a5 5 0 1 0 10 0 a5 5 0 1 0 -10 0zM125 690 a5 5 0 1 0 10 0 a5 5 0 1 0 -10 0z" fill="rgba(255, 255, 255, 1)"></path><path d="M1250 210L1190 150L1190 130" stroke-width="3.33" stroke="rgba(255, 255, 255, 1)"></path><path d="M1245 210 a5 5 0 1 0 10 0 a5 5 0 1 0 -10 0zM1185 130 a5 5 0 1 0 10 0 a5 5 0 1 0 -10 0z" fill="rgba(255, 255, 255, 1)"></path><path d="M550 230L590 190L590 170L570 150L550 150L530 170L530 210" stroke-width="3.33" stroke="rgba(255, 255, 255, 1)"></path><path d="M545 230 a5 5 0 1 0 10 0 a5 5 0 1 0 -10 0zM525 210 a5 5 0 1 0 10 0 a5 5 0 1 0 -10 0z" fill="rgba(255, 255, 255, 1)"></path><path d="M750 170L810 170" stroke-width="3.33" stroke="rgba(255, 255, 255, 1)"></path><path d="M745 170 a5 5 0 1 0 10 0 a5 5 0 1 0 -10 0zM805 170 a5 5 0 1 0 10 0 a5 5 0 1 0 -10 0z" fill="rgba(255, 255, 255, 1)"></path><path d="M230 550L190 510L170 510" stroke-width="3.33" stroke="rgba(255, 255, 255, 1)"></path><path d="M225 550 a5 5 0 1 0 10 0 a5 5 0 1 0 -10 0zM165 510 a5 5 0 1 0 10 0 a5 5 0 1 0 -10 0z" fill="rgba(255, 255, 255, 1)"></path><path d="M110 370L90 350L90 290" stroke-width="3.33" stroke="rgba(255, 255, 255, 1)"></path><path d="M105 370 a5 5 0 1 0 10 0 a5 5 0 1 0 -10 0zM85 290 a5 5 0 1 0 10 0 a5 5 0 1 0 -10 0z" fill="rgba(255, 255, 255, 1)"></path><path d="M270 210L270 230L290 250" stroke-width="3.33" stroke="rgba(255, 255, 255, 1)"></path><path d="M265 210 a5 5 0 1 0 10 0 a5 5 0 1 0 -10 0zM285 250 a5 5 0 1 0 10 0 a5 5 0 1 0 -10 0z" fill="rgba(255, 255, 255, 1)"></path><path d="M50 190L50 250L30 270L30 390" stroke-width="3.33" stroke="rgba(255, 255, 255, 1)"></path><path d="M45 190 a5 5 0 1 0 10 0 a5 5 0 1 0 -10 0zM25 390 a5 5 0 1 0 10 0 a5 5 0 1 0 -10 0z" fill="rgba(255, 255, 255, 1)"></path><path d="M90 230L90 150" stroke-width="3.33" stroke="rgba(255, 255, 255, 1)"></path><path d="M85 230 a5 5 0 1 0 10 0 a5 5 0 1 0 -10 0zM85 150 a5 5 0 1 0 10 0 a5 5 0 1 0 -10 0z" fill="rgba(255, 255, 255, 1)"></path><path d="M1050 630L910 630" stroke-width="3.33" stroke="rgba(255, 255, 255, 1)"></path><path d="M1045 630 a5 5 0 1 0 10 0 a5 5 0 1 0 -10 0zM905 630 a5 5 0 1 0 10 0 a5 5 0 1 0 -10 0z" fill="rgba(255, 255, 255, 1)"></path><path d="M210 270L210 310" stroke-width="3.33" stroke="rgba(255, 255, 255, 1)"></path><path d="M205 270 a5 5 0 1 0 10 0 a5 5 0 1 0 -10 0zM205 310 a5 5 0 1 0 10 0 a5 5 0 1 0 -10 0z" fill="rgba(255, 255, 255, 1)"></path><path d="M770 330L790 350L830 350" stroke-width="3.33" stroke="rgba(255, 255, 255, 1)"></path><path d="M765 330 a5 5 0 1 0 10 0 a5 5 0 1 0 -10 0zM825 350 a5 5 0 1 0 10 0 a5 5 0 1 0 -10 0z" fill="rgba(255, 255, 255, 1)"></path><path d="M1150 250L1210 190" stroke-width="3.33" stroke="rgba(255, 255, 255, 1)"></path><path d="M1145 250 a5 5 0 1 0 10 0 a5 5 0 1 0 -10 0zM1205 190 a5 5 0 1 0 10 0 a5 5 0 1 0 -10 0z" fill="rgba(255, 255, 255, 1)"></path><path d="M1110 50L1190 50" stroke-width="3.33" stroke="rgba(255, 255, 255, 1)"></path><path d="M1105 50 a5 5 0 1 0 10 0 a5 5 0 1 0 -10 0zM1185 50 a5 5 0 1 0 10 0 a5 5 0 1 0 -10 0z" fill="rgba(255, 255, 255, 1)"></path><path d="M490 30L610 30" stroke-width="3.33" stroke="rgba(255, 255, 255, 1)"></path><path d="M485 30 a5 5 0 1 0 10 0 a5 5 0 1 0 -10 0zM605 30 a5 5 0 1 0 10 0 a5 5 0 1 0 -10 0z" fill="rgba(255, 255, 255, 1)"></path><path d="M750 410L770 430L790 430" stroke-width="3.33" stroke="rgba(255, 255, 255, 1)"></path><path d="M745 410 a5 5 0 1 0 10 0 a5 5 0 1 0 -10 0zM785 430 a5 5 0 1 0 10 0 a5 5 0 1 0 -10 0z" fill="rgba(255, 255, 255, 1)"></path><path d="M150 650L170 630L190 630L210 650L230 650L250 630" stroke-width="3.33" stroke="rgba(255, 255, 255, 1)"></path><path d="M145 650 a5 5 0 1 0 10 0 a5 5 0 1 0 -10 0zM245 630 a5 5 0 1 0 10 0 a5 5 0 1 0 -10 0z" fill="rgba(255, 255, 255, 1)"></path><path d="M190 310L190 250" stroke-width="3.33" stroke="rgba(255, 255, 255, 1)"></path><path d="M185 310 a5 5 0 1 0 10 0 a5 5 0 1 0 -10 0zM185 250 a5 5 0 1 0 10 0 a5 5 0 1 0 -10 0z" fill="rgba(255, 255, 255, 1)"></path><path d="M10 630L30 630L50 650" stroke-width="3.33" stroke="rgba(255, 255, 255, 1)"></path><path d="M5 630 a5 5 0 1 0 10 0 a5 5 0 1 0 -10 0zM45 650 a5 5 0 1 0 10 0 a5 5 0 1 0 -10 0z" fill="rgba(255, 255, 255, 1)"></path><path d="M110 310L110 350L150 390L190 390" stroke-width="3.33" stroke="rgba(255, 255, 255, 1)"></path><path d="M105 310 a5 5 0 1 0 10 0 a5 5 0 1 0 -10 0zM185 390 a5 5 0 1 0 10 0 a5 5 0 1 0 -10 0z" fill="rgba(255, 255, 255, 1)"></path><path d="M810 710L750 710L710 670" stroke-width="3.33" stroke="rgba(255, 255, 255, 1)"></path><path d="M805 710 a5 5 0 1 0 10 0 a5 5 0 1 0 -10 0zM705 670 a5 5 0 1 0 10 0 a5 5 0 1 0 -10 0z" fill="rgba(255, 255, 255, 1)"></path><path d="M370 90L410 90" stroke-width="3.33" stroke="rgba(255, 255, 255, 1)"></path><path d="M365 90 a5 5 0 1 0 10 0 a5 5 0 1 0 -10 0zM405 90 a5 5 0 1 0 10 0 a5 5 0 1 0 -10 0z" fill="rgba(255, 255, 255, 1)"></path><path d="M1250 230L1210 270" stroke-width="3.33" stroke="rgba(255, 255, 255, 1)"></path><path d="M1245 230 a5 5 0 1 0 10 0 a5 5 0 1 0 -10 0zM1205 270 a5 5 0 1 0 10 0 a5 5 0 1 0 -10 0z" fill="rgba(255, 255, 255, 1)"></path><path d="M110 630L110 610L170 550" stroke-width="3.33" stroke="rgba(255, 255, 255, 1)"></path><path d="M105 630 a5 5 0 1 0 10 0 a5 5 0 1 0 -10 0zM165 550 a5 5 0 1 0 10 0 a5 5 0 1 0 -10 0z" fill="rgba(255, 255, 255, 1)"></path><path d="M1130 10L1150 30L1170 30L1190 10" stroke-width="3.33" stroke="rgba(255, 255, 255, 1)"></path><path d="M1125 10 a5 5 0 1 0 10 0 a5 5 0 1 0 -10 0zM1185 10 a5 5 0 1 0 10 0 a5 5 0 1 0 -10 0z" fill="rgba(255, 255, 255, 1)"></path><path d="M670 650L650 650L630 670L630 690" stroke-width="3.33" stroke="rgba(255, 255, 255, 1)"></path><path d="M665 650 a5 5 0 1 0 10 0 a5 5 0 1 0 -10 0zM625 690 a5 5 0 1 0 10 0 a5 5 0 1 0 -10 0z" fill="rgba(255, 255, 255, 1)"></path><path d="M990 370L950 410L950 430" stroke-width="3.33" stroke="rgba(255, 255, 255, 1)"></path><path d="M985 370 a5 5 0 1 0 10 0 a5 5 0 1 0 -10 0zM945 430 a5 5 0 1 0 10 0 a5 5 0 1 0 -10 0z" fill="rgba(255, 255, 255, 1)"></path><path d="M350 50L330 50L310 30L250 30" stroke-width="3.33" stroke="rgba(255, 255, 255, 1)"></path><path d="M345 50 a5 5 0 1 0 10 0 a5 5 0 1 0 -10 0zM245 30 a5 5 0 1 0 10 0 a5 5 0 1 0 -10 0z" fill="rgba(255, 255, 255, 1)"></path><path d="M1050 490L1030 470L1030 450L1050 430" stroke-width="3.33" stroke="rgba(255, 255, 255, 1)"></path><path d="M1045 490 a5 5 0 1 0 10 0 a5 5 0 1 0 -10 0zM1045 430 a5 5 0 1 0 10 0 a5 5 0 1 0 -10 0z" fill="rgba(255, 255, 255, 1)"></path><path d="M610 590L550 650L530 650" stroke-width="3.33" stroke="rgba(255, 255, 255, 1)"></path><path d="M605 590 a5 5 0 1 0 10 0 a5 5 0 1 0 -10 0zM525 650 a5 5 0 1 0 10 0 a5 5 0 1 0 -10 0z" fill="rgba(255, 255, 255, 1)"></path><path d="M810 30L770 30" stroke-width="3.33" stroke="rgba(255, 255, 255, 1)"></path><path d="M805 30 a5 5 0 1 0 10 0 a5 5 0 1 0 -10 0zM765 30 a5 5 0 1 0 10 0 a5 5 0 1 0 -10 0z" fill="rgba(255, 255, 255, 1)"></path><path d="M810 390L830 390L850 410" stroke-width="3.33" stroke="rgba(255, 255, 255, 1)"></path><path d="M805 390 a5 5 0 1 0 10 0 a5 5 0 1 0 -10 0zM845 410 a5 5 0 1 0 10 0 a5 5 0 1 0 -10 0z" fill="rgba(255, 255, 255, 1)"></path><path d="M950 570L990 610L1030 610" stroke-width="3.33" stroke="rgba(255, 255, 255, 1)"></path><path d="M945 570 a5 5 0 1 0 10 0 a5 5 0 1 0 -10 0zM1025 610 a5 5 0 1 0 10 0 a5 5 0 1 0 -10 0z" fill="rgba(255, 255, 255, 1)"></path><path d="M50 170L30 190L30 230" stroke-width="3.33" stroke="rgba(255, 255, 255, 1)"></path><path d="M45 170 a5 5 0 1 0 10 0 a5 5 0 1 0 -10 0zM25 230 a5 5 0 1 0 10 0 a5 5 0 1 0 -10 0z" fill="rgba(255, 255, 255, 1)"></path><path d="M70 470L50 470L10 510L10 610" stroke-width="3.33" stroke="rgba(255, 255, 255, 1)"></path><path d="M65 470 a5 5 0 1 0 10 0 a5 5 0 1 0 -10 0zM5 610 a5 5 0 1 0 10 0 a5 5 0 1 0 -10 0z" fill="rgba(255, 255, 255, 1)"></path><path d="M990 150L1030 190L1030 210" stroke-width="3.33" stroke="rgba(255, 255, 255, 1)"></path><path d="M985 150 a5 5 0 1 0 10 0 a5 5 0 1 0 -10 0zM1025 210 a5 5 0 1 0 10 0 a5 5 0 1 0 -10 0z" fill="rgba(255, 255, 255, 1)"></path><path d="M1050 50L1090 10L1110 10L1130 30" stroke-width="3.33" stroke="rgba(255, 255, 255, 1)"></path><path d="M1045 50 a5 5 0 1 0 10 0 a5 5 0 1 0 -10 0zM1125 30 a5 5 0 1 0 10 0 a5 5 0 1 0 -10 0z" fill="rgba(255, 255, 255, 1)"></path><path d="M430 10L390 10" stroke-width="3.33" stroke="rgba(255, 255, 255, 1)"></path><path d="M425 10 a5 5 0 1 0 10 0 a5 5 0 1 0 -10 0zM385 10 a5 5 0 1 0 10 0 a5 5 0 1 0 -10 0z" fill="rgba(255, 255, 255, 1)"></path><path d="M1190 610L1190 650" stroke-width="3.33" stroke="rgba(255, 255, 255, 1)"></path><path d="M1185 610 a5 5 0 1 0 10 0 a5 5 0 1 0 -10 0zM1185 650 a5 5 0 1 0 10 0 a5 5 0 1 0 -10 0z" fill="rgba(255, 255, 255, 1)"></path><path d="M650 490L670 510L670 550" stroke-width="3.33" stroke="rgba(255, 255, 255, 1)"></path><path d="M645 490 a5 5 0 1 0 10 0 a5 5 0 1 0 -10 0zM665 550 a5 5 0 1 0 10 0 a5 5 0 1 0 -10 0z" fill="rgba(255, 255, 255, 1)"></path><path d="M450 30L410 30" stroke-width="3.33" stroke="rgba(255, 255, 255, 1)"></path><path d="M445 30 a5 5 0 1 0 10 0 a5 5 0 1 0 -10 0zM405 30 a5 5 0 1 0 10 0 a5 5 0 1 0 -10 0z" fill="rgba(255, 255, 255, 1)"></path><path d="M270 330L270 370" stroke-width="3.33" stroke="rgba(255, 255, 255, 1)"></path><path d="M265 330 a5 5 0 1 0 10 0 a5 5 0 1 0 -10 0zM265 370 a5 5 0 1 0 10 0 a5 5 0 1 0 -10 0z" fill="rgba(255, 255, 255, 1)"></path><path d="M150 90L150 110L170 130L190 130L210 110" stroke-width="3.33" stroke="rgba(255, 255, 255, 1)"></path><path d="M145 90 a5 5 0 1 0 10 0 a5 5 0 1 0 -10 0zM205 110 a5 5 0 1 0 10 0 a5 5 0 1 0 -10 0z" fill="rgba(255, 255, 255, 1)"></path><path d="M270 550L270 530L250 510L210 510" stroke-width="3.33" stroke="rgba(255, 255, 255, 1)"></path><path d="M265 550 a5 5 0 1 0 10 0 a5 5 0 1 0 -10 0zM205 510 a5 5 0 1 0 10 0 a5 5 0 1 0 -10 0z" fill="rgba(255, 255, 255, 1)"></path><path d="M1150 270L1150 350" stroke-width="3.33" stroke="rgba(255, 255, 255, 1)"></path><path d="M1145 270 a5 5 0 1 0 10 0 a5 5 0 1 0 -10 0zM1145 350 a5 5 0 1 0 10 0 a5 5 0 1 0 -10 0z" fill="rgba(255, 255, 255, 1)"></path><path d="M30 570L30 510L50 490L90 490" stroke-width="3.33" stroke="rgba(255, 255, 255, 1)"></path><path d="M25 570 a5 5 0 1 0 10 0 a5 5 0 1 0 -10 0zM85 490 a5 5 0 1 0 10 0 a5 5 0 1 0 -10 0z" fill="rgba(255, 255, 255, 1)"></path><path d="M830 110L890 110" stroke-width="3.33" stroke="rgba(255, 255, 255, 1)"></path><path d="M825 110 a5 5 0 1 0 10 0 a5 5 0 1 0 -10 0zM885 110 a5 5 0 1 0 10 0 a5 5 0 1 0 -10 0z" fill="rgba(255, 255, 255, 1)"></path><path d="M830 30L850 50L850 70" stroke-width="3.33" stroke="rgba(255, 255, 255, 1)"></path><path d="M825 30 a5 5 0 1 0 10 0 a5 5 0 1 0 -10 0zM845 70 a5 5 0 1 0 10 0 a5 5 0 1 0 -10 0z" fill="rgba(255, 255, 255, 1)"></path><path d="M370 30L370 70" stroke-width="3.33" stroke="rgba(255, 255, 255, 1)"></path><path d="M365 30 a5 5 0 1 0 10 0 a5 5 0 1 0 -10 0zM365 70 a5 5 0 1 0 10 0 a5 5 0 1 0 -10 0z" fill="rgba(255, 255, 255, 1)"></path><path d="M1030 710L1090 710" stroke-width="3.33" stroke="rgba(255, 255, 255, 1)"></path><path d="M1025 710 a5 5 0 1 0 10 0 a5 5 0 1 0 -10 0zM1085 710 a5 5 0 1 0 10 0 a5 5 0 1 0 -10 0z" fill="rgba(255, 255, 255, 1)"></path><path d="M270 90L290 110L290 130" stroke-width="3.33" stroke="rgba(255, 255, 255, 1)"></path><path d="M265 90 a5 5 0 1 0 10 0 a5 5 0 1 0 -10 0zM285 130 a5 5 0 1 0 10 0 a5 5 0 1 0 -10 0z" fill="rgba(255, 255, 255, 1)"></path><path d="M1070 10L1030 10" stroke-width="3.33" stroke="rgba(255, 255, 255, 1)"></path><path d="M1065 10 a5 5 0 1 0 10 0 a5 5 0 1 0 -10 0zM1025 10 a5 5 0 1 0 10 0 a5 5 0 1 0 -10 0z" fill="rgba(255, 255, 255, 1)"></path><path d="M770 190L710 190L690 170L670 170" stroke-width="3.33" stroke="rgba(255, 255, 255, 1)"></path><path d="M765 190 a5 5 0 1 0 10 0 a5 5 0 1 0 -10 0zM665 170 a5 5 0 1 0 10 0 a5 5 0 1 0 -10 0z" fill="rgba(255, 255, 255, 1)"></path><path d="M230 130L250 150L250 170L230 190" stroke-width="3.33" stroke="rgba(255, 255, 255, 1)"></path><path d="M225 130 a5 5 0 1 0 10 0 a5 5 0 1 0 -10 0zM225 190 a5 5 0 1 0 10 0 a5 5 0 1 0 -10 0z" fill="rgba(255, 255, 255, 1)"></path><path d="M830 250L870 290L870 310" stroke-width="3.33" stroke="rgba(255, 255, 255, 1)"></path><path d="M825 250 a5 5 0 1 0 10 0 a5 5 0 1 0 -10 0zM865 310 a5 5 0 1 0 10 0 a5 5 0 1 0 -10 0z" fill="rgba(255, 255, 255, 1)"></path><path d="M450 590L490 590" stroke-width="3.33" stroke="rgba(255, 255, 255, 1)"></path><path d="M445 590 a5 5 0 1 0 10 0 a5 5 0 1 0 -10 0zM485 590 a5 5 0 1 0 10 0 a5 5 0 1 0 -10 0z" fill="rgba(255, 255, 255, 1)"></path><path d="M350 470L350 510L390 550L470 550L490 530" stroke-width="3.33" stroke="rgba(255, 255, 255, 1)"></path><path d="M345 470 a5 5 0 1 0 10 0 a5 5 0 1 0 -10 0zM485 530 a5 5 0 1 0 10 0 a5 5 0 1 0 -10 0z" fill="rgba(255, 255, 255, 1)"></path><path d="M130 350L150 350L170 370" stroke-width="3.33" stroke="rgba(255, 255, 255, 1)"></path><path d="M125 350 a5 5 0 1 0 10 0 a5 5 0 1 0 -10 0zM165 370 a5 5 0 1 0 10 0 a5 5 0 1 0 -10 0z" fill="rgba(255, 255, 255, 1)"></path><path d="M990 590L970 570L970 530" stroke-width="3.33" stroke="rgba(255, 255, 255, 1)"></path><path d="M985 590 a5 5 0 1 0 10 0 a5 5 0 1 0 -10 0zM965 530 a5 5 0 1 0 10 0 a5 5 0 1 0 -10 0z" fill="rgba(255, 255, 255, 1)"></path><path d="M170 70L190 90L190 110" stroke-width="3.33" stroke="rgba(255, 255, 255, 1)"></path><path d="M165 70 a5 5 0 1 0 10 0 a5 5 0 1 0 -10 0zM185 110 a5 5 0 1 0 10 0 a5 5 0 1 0 -10 0z" fill="rgba(255, 255, 255, 1)"></path><path d="M1170 210L1170 150" stroke-width="3.33" stroke="rgba(255, 255, 255, 1)"></path><path d="M1165 210 a5 5 0 1 0 10 0 a5 5 0 1 0 -10 0zM1165 150 a5 5 0 1 0 10 0 a5 5 0 1 0 -10 0z" fill="rgba(255, 255, 255, 1)"></path><path d="M790 470L790 490L810 510" stroke-width="3.33" stroke="rgba(255, 255, 255, 1)"></path><path d="M785 470 a5 5 0 1 0 10 0 a5 5 0 1 0 -10 0zM805 510 a5 5 0 1 0 10 0 a5 5 0 1 0 -10 0z" fill="rgba(255, 255, 255, 1)"></path><path d="M1150 430L1090 370" stroke-width="3.33" stroke="rgba(255, 255, 255, 1)"></path><path d="M1145 430 a5 5 0 1 0 10 0 a5 5 0 1 0 -10 0zM1085 370 a5 5 0 1 0 10 0 a5 5 0 1 0 -10 0z" fill="rgba(255, 255, 255, 1)"></path><path d="M170 650L150 670L130 670" stroke-width="3.33" stroke="rgba(255, 255, 255, 1)"></path><path d="M165 650 a5 5 0 1 0 10 0 a5 5 0 1 0 -10 0zM125 670 a5 5 0 1 0 10 0 a5 5 0 1 0 -10 0z" fill="rgba(255, 255, 255, 1)"></path><path d="M310 710L230 710" stroke-width="3.33" stroke="rgba(255, 255, 255, 1)"></path><path d="M305 710 a5 5 0 1 0 10 0 a5 5 0 1 0 -10 0zM225 710 a5 5 0 1 0 10 0 a5 5 0 1 0 -10 0z" fill="rgba(255, 255, 255, 1)"></path><path d="M1070 250L1090 270L1110 270" stroke-width="3.33" stroke="rgba(255, 255, 255, 1)"></path><path d="M1065 250 a5 5 0 1 0 10 0 a5 5 0 1 0 -10 0zM1105 270 a5 5 0 1 0 10 0 a5 5 0 1 0 -10 0z" fill="rgba(255, 255, 255, 1)"></path><path d="M990 570L990 530" stroke-width="3.33" stroke="rgba(255, 255, 255, 1)"></path><path d="M985 570 a5 5 0 1 0 10 0 a5 5 0 1 0 -10 0zM985 530 a5 5 0 1 0 10 0 a5 5 0 1 0 -10 0z" fill="rgba(255, 255, 255, 1)"></path><path d="M730 370L750 390L770 390" stroke-width="3.33" stroke="rgba(255, 255, 255, 1)"></path><path d="M725 370 a5 5 0 1 0 10 0 a5 5 0 1 0 -10 0zM765 390 a5 5 0 1 0 10 0 a5 5 0 1 0 -10 0z" fill="rgba(255, 255, 255, 1)"></path><path d="M390 530L470 530" stroke-width="3.33" stroke="rgba(255, 255, 255, 1)"></path><path d="M385 530 a5 5 0 1 0 10 0 a5 5 0 1 0 -10 0zM465 530 a5 5 0 1 0 10 0 a5 5 0 1 0 -10 0z" fill="rgba(255, 255, 255, 1)"></path><path d="M390 450L390 490L370 510" stroke-width="3.33" stroke="rgba(255, 255, 255, 1)"></path><path d="M385 450 a5 5 0 1 0 10 0 a5 5 0 1 0 -10 0zM365 510 a5 5 0 1 0 10 0 a5 5 0 1 0 -10 0z" fill="rgba(255, 255, 255, 1)"></path><path d="M330 550L350 550L410 610" stroke-width="3.33" stroke="rgba(255, 255, 255, 1)"></path><path d="M325 550 a5 5 0 1 0 10 0 a5 5 0 1 0 -10 0zM405 610 a5 5 0 1 0 10 0 a5 5 0 1 0 -10 0z" fill="rgba(255, 255, 255, 1)"></path><path d="M990 90L990 50" stroke-width="3.33" stroke="rgba(255, 255, 255, 1)"></path><path d="M985 90 a5 5 0 1 0 10 0 a5 5 0 1 0 -10 0zM985 50 a5 5 0 1 0 10 0 a5 5 0 1 0 -10 0z" fill="rgba(255, 255, 255, 1)"></path><path d="M950 70L950 30" stroke-width="3.33" stroke="rgba(255, 255, 255, 1)"></path><path d="M945 70 a5 5 0 1 0 10 0 a5 5 0 1 0 -10 0zM945 30 a5 5 0 1 0 10 0 a5 5 0 1 0 -10 0z" fill="rgba(255, 255, 255, 1)"></path><path d="M650 470L650 430" stroke-width="3.33" stroke="rgba(255, 255, 255, 1)"></path><path d="M645 470 a5 5 0 1 0 10 0 a5 5 0 1 0 -10 0zM645 430 a5 5 0 1 0 10 0 a5 5 0 1 0 -10 0z" fill="rgba(255, 255, 255, 1)"></path><path d="M910 50L890 50L870 30" stroke-width="3.33" stroke="rgba(255, 255, 255, 1)"></path><path d="M905 50 a5 5 0 1 0 10 0 a5 5 0 1 0 -10 0zM865 30 a5 5 0 1 0 10 0 a5 5 0 1 0 -10 0z" fill="rgba(255, 255, 255, 1)"></path><path d="M490 90L470 90L430 50" stroke-width="3.33" stroke="rgba(255, 255, 255, 1)"></path><path d="M485 90 a5 5 0 1 0 10 0 a5 5 0 1 0 -10 0zM425 50 a5 5 0 1 0 10 0 a5 5 0 1 0 -10 0z" fill="rgba(255, 255, 255, 1)"></path><path d="M910 450L890 430L870 430" stroke-width="3.33" stroke="rgba(255, 255, 255, 1)"></path><path d="M905 450 a5 5 0 1 0 10 0 a5 5 0 1 0 -10 0zM865 430 a5 5 0 1 0 10 0 a5 5 0 1 0 -10 0z" fill="rgba(255, 255, 255, 1)"></path><path d="M450 130L470 150L490 150L510 130" stroke-width="3.33" stroke="rgba(255, 255, 255, 1)"></path><path d="M445 130 a5 5 0 1 0 10 0 a5 5 0 1 0 -10 0zM505 130 a5 5 0 1 0 10 0 a5 5 0 1 0 -10 0z" fill="rgba(255, 255, 255, 1)"></path><path d="M1070 90L1090 70L1090 30" stroke-width="3.33" stroke="rgba(255, 255, 255, 1)"></path><path d="M1065 90 a5 5 0 1 0 10 0 a5 5 0 1 0 -10 0zM1085 30 a5 5 0 1 0 10 0 a5 5 0 1 0 -10 0z" fill="rgba(255, 255, 255, 1)"></path><path d="M150 590L170 590L190 570" stroke-width="3.33" stroke="rgba(255, 255, 255, 1)"></path><path d="M145 590 a5 5 0 1 0 10 0 a5 5 0 1 0 -10 0zM185 570 a5 5 0 1 0 10 0 a5 5 0 1 0 -10 0z" fill="rgba(255, 255, 255, 1)"></path><path d="M330 590L330 630L350 650" stroke-width="3.33" stroke="rgba(255, 255, 255, 1)"></path><path d="M325 590 a5 5 0 1 0 10 0 a5 5 0 1 0 -10 0zM345 650 a5 5 0 1 0 10 0 a5 5 0 1 0 -10 0z" fill="rgba(255, 255, 255, 1)"></path><path d="M490 10L450 50" stroke-width="3.33" stroke="rgba(255, 255, 255, 1)"></path><path d="M485 10 a5 5 0 1 0 10 0 a5 5 0 1 0 -10 0zM445 50 a5 5 0 1 0 10 0 a5 5 0 1 0 -10 0z" fill="rgba(255, 255, 255, 1)"></path><path d="M630 210L610 210L590 230" stroke-width="3.33" stroke="rgba(255, 255, 255, 1)"></path><path d="M625 210 a5 5 0 1 0 10 0 a5 5 0 1 0 -10 0zM585 230 a5 5 0 1 0 10 0 a5 5 0 1 0 -10 0z" fill="rgba(255, 255, 255, 1)"></path><path d="M1170 70L1110 70" stroke-width="3.33" stroke="rgba(255, 255, 255, 1)"></path><path d="M1165 70 a5 5 0 1 0 10 0 a5 5 0 1 0 -10 0zM1105 70 a5 5 0 1 0 10 0 a5 5 0 1 0 -10 0z" fill="rgba(255, 255, 255, 1)"></path><path d="M750 550L810 550" stroke-width="3.33" stroke="rgba(255, 255, 255, 1)"></path><path d="M745 550 a5 5 0 1 0 10 0 a5 5 0 1 0 -10 0zM805 550 a5 5 0 1 0 10 0 a5 5 0 1 0 -10 0z" fill="rgba(255, 255, 255, 1)"></path><path d="M990 390L1010 390L1030 370" stroke-width="3.33" stroke="rgba(255, 255, 255, 1)"></path><path d="M985 390 a5 5 0 1 0 10 0 a5 5 0 1 0 -10 0zM1025 370 a5 5 0 1 0 10 0 a5 5 0 1 0 -10 0z" fill="rgba(255, 255, 255, 1)"></path><path d="M970 90L970 150" stroke-width="3.33" stroke="rgba(255, 255, 255, 1)"></path><path d="M965 90 a5 5 0 1 0 10 0 a5 5 0 1 0 -10 0zM965 150 a5 5 0 1 0 10 0 a5 5 0 1 0 -10 0z" fill="rgba(255, 255, 255, 1)"></path><path d="M350 290L330 270L330 250" stroke-width="3.33" stroke="rgba(255, 255, 255, 1)"></path><path d="M345 290 a5 5 0 1 0 10 0 a5 5 0 1 0 -10 0zM325 250 a5 5 0 1 0 10 0 a5 5 0 1 0 -10 0z" fill="rgba(255, 255, 255, 1)"></path><path d="M290 590L310 570L350 570L390 610" stroke-width="3.33" stroke="rgba(255, 255, 255, 1)"></path><path d="M285 590 a5 5 0 1 0 10 0 a5 5 0 1 0 -10 0zM385 610 a5 5 0 1 0 10 0 a5 5 0 1 0 -10 0z" fill="rgba(255, 255, 255, 1)"></path><path d="M150 190L150 210L130 230" stroke-width="3.33" stroke="rgba(255, 255, 255, 1)"></path><path d="M145 190 a5 5 0 1 0 10 0 a5 5 0 1 0 -10 0zM125 230 a5 5 0 1 0 10 0 a5 5 0 1 0 -10 0z" fill="rgba(255, 255, 255, 1)"></path><path d="M710 30L710 50L670 90" stroke-width="3.33" stroke="rgba(255, 255, 255, 1)"></path><path d="M705 30 a5 5 0 1 0 10 0 a5 5 0 1 0 -10 0zM665 90 a5 5 0 1 0 10 0 a5 5 0 1 0 -10 0z" fill="rgba(255, 255, 255, 1)"></path><path d="M1030 130L1050 130L1070 150L1070 170L1050 190" stroke-width="3.33" stroke="rgba(255, 255, 255, 1)"></path><path d="M1025 130 a5 5 0 1 0 10 0 a5 5 0 1 0 -10 0zM1045 190 a5 5 0 1 0 10 0 a5 5 0 1 0 -10 0z" fill="rgba(255, 255, 255, 1)"></path><path d="M1050 70L1050 90L1030 110" stroke-width="3.33" stroke="rgba(255, 255, 255, 1)"></path><path d="M1045 70 a5 5 0 1 0 10 0 a5 5 0 1 0 -10 0zM1025 110 a5 5 0 1 0 10 0 a5 5 0 1 0 -10 0z" fill="rgba(255, 255, 255, 1)"></path><path d="M870 590L910 590L930 610" stroke-width="3.33" stroke="rgba(255, 255, 255, 1)"></path><path d="M865 590 a5 5 0 1 0 10 0 a5 5 0 1 0 -10 0zM925 610 a5 5 0 1 0 10 0 a5 5 0 1 0 -10 0z" fill="rgba(255, 255, 255, 1)"></path><path d="M770 530L750 510L750 490" stroke-width="3.33" stroke="rgba(255, 255, 255, 1)"></path><path d="M765 530 a5 5 0 1 0 10 0 a5 5 0 1 0 -10 0zM745 490 a5 5 0 1 0 10 0 a5 5 0 1 0 -10 0z" fill="rgba(255, 255, 255, 1)"></path><path d="M630 370L630 310" stroke-width="3.33" stroke="rgba(255, 255, 255, 1)"></path><path d="M625 370 a5 5 0 1 0 10 0 a5 5 0 1 0 -10 0zM625 310 a5 5 0 1 0 10 0 a5 5 0 1 0 -10 0z" fill="rgba(255, 255, 255, 1)"></path><path d="M830 290L810 270L810 250" stroke-width="3.33" stroke="rgba(255, 255, 255, 1)"></path><path d="M825 290 a5 5 0 1 0 10 0 a5 5 0 1 0 -10 0zM805 250 a5 5 0 1 0 10 0 a5 5 0 1 0 -10 0z" fill="rgba(255, 255, 255, 1)"></path><path d="M30 170L30 130" stroke-width="3.33" stroke="rgba(255, 255, 255, 1)"></path><path d="M25 170 a5 5 0 1 0 10 0 a5 5 0 1 0 -10 0zM25 130 a5 5 0 1 0 10 0 a5 5 0 1 0 -10 0z" fill="rgba(255, 255, 255, 1)"></path></g></g><defs><mask id="SvgjsMask1691"><rect width="1280" height="720" fill="#ffffff"></rect></mask><linearGradient x1="0%" y1="50%" x2="100%" y2="50%" gradientUnits="userSpaceOnUse" id="SvgjsLinearGradient1692"><stop stop-color="rgba(255, 241, 0, 1)" offset="0.03"></stop><stop stop-color="rgba(255, 241, 0, 1)" offset="0.48"></stop></linearGradient><mask id="SvgjsMask1693"><rect width="1280" height="720" fill="white"></rect><path d="M1027.5 550 a2.5 2.5 0 1 0 5 0 a2.5 2.5 0 1 0 -5 0zM667.5 270 a2.5 2.5 0 1 0 5 0 a2.5 2.5 0 1 0 -5 0z" fill="black"></path><path d="M327.5 470 a2.5 2.5 0 1 0 5 0 a2.5 2.5 0 1 0 -5 0zM87.5 110 a2.5 2.5 0 1 0 5 0 a2.5 2.5 0 1 0 -5 0z" fill="black"></path><path d="M687.5 470 a2.5 2.5 0 1 0 5 0 a2.5 2.5 0 1 0 -5 0zM987.5 710 a2.5 2.5 0 1 0 5 0 a2.5 2.5 0 1 0 -5 0z" fill="black"></path><path d="M247.5 250 a2.5 2.5 0 1 0 5 0 a2.5 2.5 0 1 0 -5 0zM7.5 10 a2.5 2.5 0 1 0 5 0 a2.5 2.5 0 1 0 -5 0z" fill="black"></path><path d="M107.5 430 a2.5 2.5 0 1 0 5 0 a2.5 2.5 0 1 0 -5 0zM487.5 570 a2.5 2.5 0 1 0 5 0 a2.5 2.5 0 1 0 -5 0z" fill="black"></path><path d="M427.5 490 a2.5 2.5 0 1 0 5 0 a2.5 2.5 0 1 0 -5 0zM507.5 670 a2.5 2.5 0 1 0 5 0 a2.5 2.5 0 1 0 -5 0z" fill="black"></path><path d="M907.5 130 a2.5 2.5 0 1 0 5 0 a2.5 2.5 0 1 0 -5 0zM527.5 150 a2.5 2.5 0 1 0 5 0 a2.5 2.5 0 1 0 -5 0z" fill="black"></path><path d="M407.5 670 a2.5 2.5 0 1 0 5 0 a2.5 2.5 0 1 0 -5 0zM607.5 550 a2.5 2.5 0 1 0 5 0 a2.5 2.5 0 1 0 -5 0z" fill="black"></path><path d="M1187.5 310 a2.5 2.5 0 1 0 5 0 a2.5 2.5 0 1 0 -5 0zM1267.5 10 a2.5 2.5 0 1 0 5 0 a2.5 2.5 0 1 0 -5 0z" fill="black"></path><path d="M347.5 150 a2.5 2.5 0 1 0 5 0 a2.5 2.5 0 1 0 -5 0zM47.5 10 a2.5 2.5 0 1 0 5 0 a2.5 2.5 0 1 0 -5 0z" fill="black"></path><path d="M287.5 650 a2.5 2.5 0 1 0 5 0 a2.5 2.5 0 1 0 -5 0zM47.5 270 a2.5 2.5 0 1 0 5 0 a2.5 2.5 0 1 0 -5 0z" fill="black"></path><path d="M567.5 10 a2.5 2.5 0 1 0 5 0 a2.5 2.5 0 1 0 -5 0zM947.5 10 a2.5 2.5 0 1 0 5 0 a2.5 2.5 0 1 0 -5 0z" fill="black"></path><path d="M227.5 110 a2.5 2.5 0 1 0 5 0 a2.5 2.5 0 1 0 -5 0zM127.5 50 a2.5 2.5 0 1 0 5 0 a2.5 2.5 0 1 0 -5 0z" fill="black"></path><path d="M7.5 490 a2.5 2.5 0 1 0 5 0 a2.5 2.5 0 1 0 -5 0zM7.5 110 a2.5 2.5 0 1 0 5 0 a2.5 2.5 0 1 0 -5 0z" fill="black"></path><path d="M827.5 510 a2.5 2.5 0 1 0 5 0 a2.5 2.5 0 1 0 -5 0zM1167.5 710 a2.5 2.5 0 1 0 5 0 a2.5 2.5 0 1 0 -5 0z" fill="black"></path><path d="M187.5 710 a2.5 2.5 0 1 0 5 0 a2.5 2.5 0 1 0 -5 0zM567.5 710 a2.5 2.5 0 1 0 5 0 a2.5 2.5 0 1 0 -5 0z" fill="black"></path><path d="M27.5 610 a2.5 2.5 0 1 0 5 0 a2.5 2.5 0 1 0 -5 0zM7.5 710 a2.5 2.5 0 1 0 5 0 a2.5 2.5 0 1 0 -5 0z" fill="black"></path><path d="M687.5 30 a2.5 2.5 0 1 0 5 0 a2.5 2.5 0 1 0 -5 0zM307.5 50 a2.5 2.5 0 1 0 5 0 a2.5 2.5 0 1 0 -5 0z" fill="black"></path><path d="M667.5 430 a2.5 2.5 0 1 0 5 0 a2.5 2.5 0 1 0 -5 0zM287.5 70 a2.5 2.5 0 1 0 5 0 a2.5 2.5 0 1 0 -5 0z" fill="black"></path><path d="M607.5 710 a2.5 2.5 0 1 0 5 0 a2.5 2.5 0 1 0 -5 0zM307.5 590 a2.5 2.5 0 1 0 5 0 a2.5 2.5 0 1 0 -5 0z" fill="black"></path><path d="M247.5 670 a2.5 2.5 0 1 0 5 0 a2.5 2.5 0 1 0 -5 0zM207.5 710 a2.5 2.5 0 1 0 5 0 a2.5 2.5 0 1 0 -5 0z" fill="black"></path><path d="M507.5 90 a2.5 2.5 0 1 0 5 0 a2.5 2.5 0 1 0 -5 0zM667.5 30 a2.5 2.5 0 1 0 5 0 a2.5 2.5 0 1 0 -5 0z" fill="black"></path><path d="M787.5 110 a2.5 2.5 0 1 0 5 0 a2.5 2.5 0 1 0 -5 0zM647.5 90 a2.5 2.5 0 1 0 5 0 a2.5 2.5 0 1 0 -5 0z" fill="black"></path><path d="M1087.5 350 a2.5 2.5 0 1 0 5 0 a2.5 2.5 0 1 0 -5 0zM1247.5 710 a2.5 2.5 0 1 0 5 0 a2.5 2.5 0 1 0 -5 0z" fill="black"></path><path d="M967.5 190 a2.5 2.5 0 1 0 5 0 a2.5 2.5 0 1 0 -5 0zM927.5 30 a2.5 2.5 0 1 0 5 0 a2.5 2.5 0 1 0 -5 0z" fill="black"></path><path d="M587.5 370 a2.5 2.5 0 1 0 5 0 a2.5 2.5 0 1 0 -5 0zM827.5 710 a2.5 2.5 0 1 0 5 0 a2.5 2.5 0 1 0 -5 0z" fill="black"></path><path d="M1007.5 210 a2.5 2.5 0 1 0 5 0 a2.5 2.5 0 1 0 -5 0zM627.5 150 a2.5 2.5 0 1 0 5 0 a2.5 2.5 0 1 0 -5 0z" fill="black"></path><path d="M67.5 530 a2.5 2.5 0 1 0 5 0 a2.5 2.5 0 1 0 -5 0zM107.5 490 a2.5 2.5 0 1 0 5 0 a2.5 2.5 0 1 0 -5 0z" fill="black"></path><path d="M227.5 610 a2.5 2.5 0 1 0 5 0 a2.5 2.5 0 1 0 -5 0zM107.5 710 a2.5 2.5 0 1 0 5 0 a2.5 2.5 0 1 0 -5 0z" fill="black"></path><path d="M487.5 170 a2.5 2.5 0 1 0 5 0 a2.5 2.5 0 1 0 -5 0zM527.5 130 a2.5 2.5 0 1 0 5 0 a2.5 2.5 0 1 0 -5 0z" fill="black"></path><path d="M27.5 450 a2.5 2.5 0 1 0 5 0 a2.5 2.5 0 1 0 -5 0zM7.5 410 a2.5 2.5 0 1 0 5 0 a2.5 2.5 0 1 0 -5 0z" fill="black"></path><path d="M207.5 10 a2.5 2.5 0 1 0 5 0 a2.5 2.5 0 1 0 -5 0zM67.5 10 a2.5 2.5 0 1 0 5 0 a2.5 2.5 0 1 0 -5 0z" fill="black"></path><path d="M1267.5 330 a2.5 2.5 0 1 0 5 0 a2.5 2.5 0 1 0 -5 0zM1267.5 710 a2.5 2.5 0 1 0 5 0 a2.5 2.5 0 1 0 -5 0z" fill="black"></path><path d="M1067.5 210 a2.5 2.5 0 1 0 5 0 a2.5 2.5 0 1 0 -5 0zM1247.5 70 a2.5 2.5 0 1 0 5 0 a2.5 2.5 0 1 0 -5 0z" fill="black"></path><path d="M427.5 410 a2.5 2.5 0 1 0 5 0 a2.5 2.5 0 1 0 -5 0zM587.5 410 a2.5 2.5 0 1 0 5 0 a2.5 2.5 0 1 0 -5 0z" fill="black"></path><path d="M1187.5 270 a2.5 2.5 0 1 0 5 0 a2.5 2.5 0 1 0 -5 0zM1227.5 650 a2.5 2.5 0 1 0 5 0 a2.5 2.5 0 1 0 -5 0z" fill="black"></path><path d="M967.5 610 a2.5 2.5 0 1 0 5 0 a2.5 2.5 0 1 0 -5 0zM687.5 310 a2.5 2.5 0 1 0 5 0 a2.5 2.5 0 1 0 -5 0z" fill="black"></path><path d="M7.5 670 a2.5 2.5 0 1 0 5 0 a2.5 2.5 0 1 0 -5 0zM67.5 670 a2.5 2.5 0 1 0 5 0 a2.5 2.5 0 1 0 -5 0z" fill="black"></path><path d="M907.5 670 a2.5 2.5 0 1 0 5 0 a2.5 2.5 0 1 0 -5 0zM1127.5 710 a2.5 2.5 0 1 0 5 0 a2.5 2.5 0 1 0 -5 0z" fill="black"></path><path d="M187.5 210 a2.5 2.5 0 1 0 5 0 a2.5 2.5 0 1 0 -5 0zM127.5 270 a2.5 2.5 0 1 0 5 0 a2.5 2.5 0 1 0 -5 0z" fill="black"></path><path d="M147.5 550 a2.5 2.5 0 1 0 5 0 a2.5 2.5 0 1 0 -5 0zM67.5 630 a2.5 2.5 0 1 0 5 0 a2.5 2.5 0 1 0 -5 0z" fill="black"></path><path d="M627.5 270 a2.5 2.5 0 1 0 5 0 a2.5 2.5 0 1 0 -5 0zM667.5 410 a2.5 2.5 0 1 0 5 0 a2.5 2.5 0 1 0 -5 0z" fill="black"></path><path d="M1007.5 150 a2.5 2.5 0 1 0 5 0 a2.5 2.5 0 1 0 -5 0zM1007.5 10 a2.5 2.5 0 1 0 5 0 a2.5 2.5 0 1 0 -5 0z" fill="black"></path><path d="M947.5 150 a2.5 2.5 0 1 0 5 0 a2.5 2.5 0 1 0 -5 0zM967.5 10 a2.5 2.5 0 1 0 5 0 a2.5 2.5 0 1 0 -5 0z" fill="black"></path><path d="M447.5 90 a2.5 2.5 0 1 0 5 0 a2.5 2.5 0 1 0 -5 0zM227.5 10 a2.5 2.5 0 1 0 5 0 a2.5 2.5 0 1 0 -5 0z" fill="black"></path><path d="M567.5 510 a2.5 2.5 0 1 0 5 0 a2.5 2.5 0 1 0 -5 0zM327.5 670 a2.5 2.5 0 1 0 5 0 a2.5 2.5 0 1 0 -5 0z" fill="black"></path><path d="M1107.5 630 a2.5 2.5 0 1 0 5 0 a2.5 2.5 0 1 0 -5 0zM1207.5 710 a2.5 2.5 0 1 0 5 0 a2.5 2.5 0 1 0 -5 0z" fill="black"></path><path d="M47.5 70 a2.5 2.5 0 1 0 5 0 a2.5 2.5 0 1 0 -5 0zM87.5 90 a2.5 2.5 0 1 0 5 0 a2.5 2.5 0 1 0 -5 0z" fill="black"></path><path d="M727.5 70 a2.5 2.5 0 1 0 5 0 a2.5 2.5 0 1 0 -5 0zM747.5 30 a2.5 2.5 0 1 0 5 0 a2.5 2.5 0 1 0 -5 0z" fill="black"></path><path d="M247.5 290 a2.5 2.5 0 1 0 5 0 a2.5 2.5 0 1 0 -5 0zM527.5 470 a2.5 2.5 0 1 0 5 0 a2.5 2.5 0 1 0 -5 0z" fill="black"></path><path d="M1207.5 650 a2.5 2.5 0 1 0 5 0 a2.5 2.5 0 1 0 -5 0zM1047.5 510 a2.5 2.5 0 1 0 5 0 a2.5 2.5 0 1 0 -5 0z" fill="black"></path><path d="M107.5 170 a2.5 2.5 0 1 0 5 0 a2.5 2.5 0 1 0 -5 0zM107.5 250 a2.5 2.5 0 1 0 5 0 a2.5 2.5 0 1 0 -5 0z" fill="black"></path><path d="M747.5 590 a2.5 2.5 0 1 0 5 0 a2.5 2.5 0 1 0 -5 0zM687.5 430 a2.5 2.5 0 1 0 5 0 a2.5 2.5 0 1 0 -5 0z" fill="black"></path><path d="M467.5 210 a2.5 2.5 0 1 0 5 0 a2.5 2.5 0 1 0 -5 0zM367.5 130 a2.5 2.5 0 1 0 5 0 a2.5 2.5 0 1 0 -5 0z" fill="black"></path><path d="M867.5 570 a2.5 2.5 0 1 0 5 0 a2.5 2.5 0 1 0 -5 0zM727.5 470 a2.5 2.5 0 1 0 5 0 a2.5 2.5 0 1 0 -5 0z" fill="black"></path><path d="M7.5 70 a2.5 2.5 0 1 0 5 0 a2.5 2.5 0 1 0 -5 0zM67.5 110 a2.5 2.5 0 1 0 5 0 a2.5 2.5 0 1 0 -5 0z" fill="black"></path><path d="M1187.5 570 a2.5 2.5 0 1 0 5 0 a2.5 2.5 0 1 0 -5 0zM1067.5 430 a2.5 2.5 0 1 0 5 0 a2.5 2.5 0 1 0 -5 0z" fill="black"></path><path d="M1047.5 110 a2.5 2.5 0 1 0 5 0 a2.5 2.5 0 1 0 -5 0zM887.5 370 a2.5 2.5 0 1 0 5 0 a2.5 2.5 0 1 0 -5 0z" fill="black"></path><path d="M1087.5 310 a2.5 2.5 0 1 0 5 0 a2.5 2.5 0 1 0 -5 0zM967.5 450 a2.5 2.5 0 1 0 5 0 a2.5 2.5 0 1 0 -5 0z" fill="black"></path><path d="M607.5 350 a2.5 2.5 0 1 0 5 0 a2.5 2.5 0 1 0 -5 0zM407.5 130 a2.5 2.5 0 1 0 5 0 a2.5 2.5 0 1 0 -5 0z" fill="black"></path><path d="M987.5 250 a2.5 2.5 0 1 0 5 0 a2.5 2.5 0 1 0 -5 0zM607.5 270 a2.5 2.5 0 1 0 5 0 a2.5 2.5 0 1 0 -5 0z" fill="black"></path><path d="M307.5 330 a2.5 2.5 0 1 0 5 0 a2.5 2.5 0 1 0 -5 0zM187.5 330 a2.5 2.5 0 1 0 5 0 a2.5 2.5 0 1 0 -5 0z" fill="black"></path><path d="M747.5 90 a2.5 2.5 0 1 0 5 0 a2.5 2.5 0 1 0 -5 0zM907.5 110 a2.5 2.5 0 1 0 5 0 a2.5 2.5 0 1 0 -5 0z" fill="black"></path><path d="M287.5 390 a2.5 2.5 0 1 0 5 0 a2.5 2.5 0 1 0 -5 0zM267.5 390 a2.5 2.5 0 1 0 5 0 a2.5 2.5 0 1 0 -5 0z" fill="black"></path><path d="M1167.5 470 a2.5 2.5 0 1 0 5 0 a2.5 2.5 0 1 0 -5 0zM1087.5 330 a2.5 2.5 0 1 0 5 0 a2.5 2.5 0 1 0 -5 0z" fill="black"></path><path d="M907.5 390 a2.5 2.5 0 1 0 5 0 a2.5 2.5 0 1 0 -5 0zM1047.5 350 a2.5 2.5 0 1 0 5 0 a2.5 2.5 0 1 0 -5 0z" fill="black"></path><path d="M387.5 50 a2.5 2.5 0 1 0 5 0 a2.5 2.5 0 1 0 -5 0zM427.5 90 a2.5 2.5 0 1 0 5 0 a2.5 2.5 0 1 0 -5 0z" fill="black"></path><path d="M667.5 670 a2.5 2.5 0 1 0 5 0 a2.5 2.5 0 1 0 -5 0zM627.5 710 a2.5 2.5 0 1 0 5 0 a2.5 2.5 0 1 0 -5 0z" fill="black"></path><path d="M1227.5 370 a2.5 2.5 0 1 0 5 0 a2.5 2.5 0 1 0 -5 0zM1247.5 690 a2.5 2.5 0 1 0 5 0 a2.5 2.5 0 1 0 -5 0z" fill="black"></path><path d="M967.5 490 a2.5 2.5 0 1 0 5 0 a2.5 2.5 0 1 0 -5 0zM707.5 290 a2.5 2.5 0 1 0 5 0 a2.5 2.5 0 1 0 -5 0z" fill="black"></path><path d="M127.5 710 a2.5 2.5 0 1 0 5 0 a2.5 2.5 0 1 0 -5 0zM167.5 710 a2.5 2.5 0 1 0 5 0 a2.5 2.5 0 1 0 -5 0z" fill="black"></path><path d="M587.5 70 a2.5 2.5 0 1 0 5 0 a2.5 2.5 0 1 0 -5 0zM647.5 30 a2.5 2.5 0 1 0 5 0 a2.5 2.5 0 1 0 -5 0z" fill="black"></path><path d="M1267.5 270 a2.5 2.5 0 1 0 5 0 a2.5 2.5 0 1 0 -5 0zM1207.5 490 a2.5 2.5 0 1 0 5 0 a2.5 2.5 0 1 0 -5 0z" fill="black"></path><path d="M87.5 270 a2.5 2.5 0 1 0 5 0 a2.5 2.5 0 1 0 -5 0zM87.5 430 a2.5 2.5 0 1 0 5 0 a2.5 2.5 0 1 0 -5 0z" fill="black"></path><path d="M967.5 670 a2.5 2.5 0 1 0 5 0 a2.5 2.5 0 1 0 -5 0zM767.5 590 a2.5 2.5 0 1 0 5 0 a2.5 2.5 0 1 0 -5 0z" fill="black"></path><path d="M1127.5 250 a2.5 2.5 0 1 0 5 0 a2.5 2.5 0 1 0 -5 0zM947.5 330 a2.5 2.5 0 1 0 5 0 a2.5 2.5 0 1 0 -5 0z" fill="black"></path><path d="M1247.5 470 a2.5 2.5 0 1 0 5 0 a2.5 2.5 0 1 0 -5 0zM1267.5 290 a2.5 2.5 0 1 0 5 0 a2.5 2.5 0 1 0 -5 0z" fill="black"></path><path d="M87.5 390 a2.5 2.5 0 1 0 5 0 a2.5 2.5 0 1 0 -5 0zM227.5 410 a2.5 2.5 0 1 0 5 0 a2.5 2.5 0 1 0 -5 0z" fill="black"></path><path d="M967.5 650 a2.5 2.5 0 1 0 5 0 a2.5 2.5 0 1 0 -5 0zM1087.5 670 a2.5 2.5 0 1 0 5 0 a2.5 2.5 0 1 0 -5 0z" fill="black"></path><path d="M967.5 250 a2.5 2.5 0 1 0 5 0 a2.5 2.5 0 1 0 -5 0zM787.5 250 a2.5 2.5 0 1 0 5 0 a2.5 2.5 0 1 0 -5 0z" fill="black"></path><path d="M907.5 690 a2.5 2.5 0 1 0 5 0 a2.5 2.5 0 1 0 -5 0zM767.5 610 a2.5 2.5 0 1 0 5 0 a2.5 2.5 0 1 0 -5 0z" fill="black"></path><path d="M1147.5 530 a2.5 2.5 0 1 0 5 0 a2.5 2.5 0 1 0 -5 0zM1127.5 470 a2.5 2.5 0 1 0 5 0 a2.5 2.5 0 1 0 -5 0z" fill="black"></path><path d="M327.5 450 a2.5 2.5 0 1 0 5 0 a2.5 2.5 0 1 0 -5 0zM447.5 470 a2.5 2.5 0 1 0 5 0 a2.5 2.5 0 1 0 -5 0z" fill="black"></path><path d="M307.5 210 a2.5 2.5 0 1 0 5 0 a2.5 2.5 0 1 0 -5 0zM587.5 390 a2.5 2.5 0 1 0 5 0 a2.5 2.5 0 1 0 -5 0z" fill="black"></path><path d="M847.5 450 a2.5 2.5 0 1 0 5 0 a2.5 2.5 0 1 0 -5 0zM727.5 290 a2.5 2.5 0 1 0 5 0 a2.5 2.5 0 1 0 -5 0z" fill="black"></path><path d="M867.5 330 a2.5 2.5 0 1 0 5 0 a2.5 2.5 0 1 0 -5 0zM947.5 250 a2.5 2.5 0 1 0 5 0 a2.5 2.5 0 1 0 -5 0z" fill="black"></path><path d="M867.5 410 a2.5 2.5 0 1 0 5 0 a2.5 2.5 0 1 0 -5 0zM747.5 290 a2.5 2.5 0 1 0 5 0 a2.5 2.5 0 1 0 -5 0z" fill="black"></path><path d="M227.5 210 a2.5 2.5 0 1 0 5 0 a2.5 2.5 0 1 0 -5 0zM187.5 170 a2.5 2.5 0 1 0 5 0 a2.5 2.5 0 1 0 -5 0z" fill="black"></path><path d="M387.5 630 a2.5 2.5 0 1 0 5 0 a2.5 2.5 0 1 0 -5 0zM387.5 510 a2.5 2.5 0 1 0 5 0 a2.5 2.5 0 1 0 -5 0z" fill="black"></path><path d="M267.5 490 a2.5 2.5 0 1 0 5 0 a2.5 2.5 0 1 0 -5 0zM107.5 450 a2.5 2.5 0 1 0 5 0 a2.5 2.5 0 1 0 -5 0z" fill="black"></path><path d="M307.5 530 a2.5 2.5 0 1 0 5 0 a2.5 2.5 0 1 0 -5 0zM247.5 590 a2.5 2.5 0 1 0 5 0 a2.5 2.5 0 1 0 -5 0z" fill="black"></path><path d="M687.5 90 a2.5 2.5 0 1 0 5 0 a2.5 2.5 0 1 0 -5 0zM727.5 30 a2.5 2.5 0 1 0 5 0 a2.5 2.5 0 1 0 -5 0z" fill="black"></path><path d="M467.5 350 a2.5 2.5 0 1 0 5 0 a2.5 2.5 0 1 0 -5 0zM147.5 50 a2.5 2.5 0 1 0 5 0 a2.5 2.5 0 1 0 -5 0z" fill="black"></path><path d="M1067.5 610 a2.5 2.5 0 1 0 5 0 a2.5 2.5 0 1 0 -5 0zM1027.5 570 a2.5 2.5 0 1 0 5 0 a2.5 2.5 0 1 0 -5 0z" fill="black"></path><path d="M287.5 150 a2.5 2.5 0 1 0 5 0 a2.5 2.5 0 1 0 -5 0zM567.5 370 a2.5 2.5 0 1 0 5 0 a2.5 2.5 0 1 0 -5 0z" fill="black"></path><path d="M167.5 210 a2.5 2.5 0 1 0 5 0 a2.5 2.5 0 1 0 -5 0zM87.5 130 a2.5 2.5 0 1 0 5 0 a2.5 2.5 0 1 0 -5 0z" fill="black"></path><path d="M1087.5 110 a2.5 2.5 0 1 0 5 0 a2.5 2.5 0 1 0 -5 0zM1247.5 10 a2.5 2.5 0 1 0 5 0 a2.5 2.5 0 1 0 -5 0z" fill="black"></path><path d="M387.5 230 a2.5 2.5 0 1 0 5 0 a2.5 2.5 0 1 0 -5 0zM547.5 370 a2.5 2.5 0 1 0 5 0 a2.5 2.5 0 1 0 -5 0z" fill="black"></path><path d="M107.5 290 a2.5 2.5 0 1 0 5 0 a2.5 2.5 0 1 0 -5 0zM207.5 390 a2.5 2.5 0 1 0 5 0 a2.5 2.5 0 1 0 -5 0z" fill="black"></path><path d="M1127.5 210 a2.5 2.5 0 1 0 5 0 a2.5 2.5 0 1 0 -5 0zM1007.5 270 a2.5 2.5 0 1 0 5 0 a2.5 2.5 0 1 0 -5 0z" fill="black"></path><path d="M267.5 170 a2.5 2.5 0 1 0 5 0 a2.5 2.5 0 1 0 -5 0zM287.5 290 a2.5 2.5 0 1 0 5 0 a2.5 2.5 0 1 0 -5 0z" fill="black"></path><path d="M1127.5 290 a2.5 2.5 0 1 0 5 0 a2.5 2.5 0 1 0 -5 0zM1147.5 370 a2.5 2.5 0 1 0 5 0 a2.5 2.5 0 1 0 -5 0z" fill="black"></path><path d="M107.5 510 a2.5 2.5 0 1 0 5 0 a2.5 2.5 0 1 0 -5 0zM147.5 530 a2.5 2.5 0 1 0 5 0 a2.5 2.5 0 1 0 -5 0z" fill="black"></path><path d="M587.5 490 a2.5 2.5 0 1 0 5 0 a2.5 2.5 0 1 0 -5 0zM447.5 430 a2.5 2.5 0 1 0 5 0 a2.5 2.5 0 1 0 -5 0z" fill="black"></path><path d="M1027.5 310 a2.5 2.5 0 1 0 5 0 a2.5 2.5 0 1 0 -5 0zM987.5 330 a2.5 2.5 0 1 0 5 0 a2.5 2.5 0 1 0 -5 0z" fill="black"></path><path d="M647.5 170 a2.5 2.5 0 1 0 5 0 a2.5 2.5 0 1 0 -5 0zM927.5 210 a2.5 2.5 0 1 0 5 0 a2.5 2.5 0 1 0 -5 0z" fill="black"></path><path d="M407.5 210 a2.5 2.5 0 1 0 5 0 a2.5 2.5 0 1 0 -5 0zM527.5 310 a2.5 2.5 0 1 0 5 0 a2.5 2.5 0 1 0 -5 0z" fill="black"></path><path d="M567.5 230 a2.5 2.5 0 1 0 5 0 a2.5 2.5 0 1 0 -5 0zM687.5 230 a2.5 2.5 0 1 0 5 0 a2.5 2.5 0 1 0 -5 0z" fill="black"></path><path d="M147.5 490 a2.5 2.5 0 1 0 5 0 a2.5 2.5 0 1 0 -5 0zM287.5 530 a2.5 2.5 0 1 0 5 0 a2.5 2.5 0 1 0 -5 0z" fill="black"></path><path d="M647.5 610 a2.5 2.5 0 1 0 5 0 a2.5 2.5 0 1 0 -5 0zM647.5 570 a2.5 2.5 0 1 0 5 0 a2.5 2.5 0 1 0 -5 0z" fill="black"></path><path d="M847.5 430 a2.5 2.5 0 1 0 5 0 a2.5 2.5 0 1 0 -5 0zM927.5 450 a2.5 2.5 0 1 0 5 0 a2.5 2.5 0 1 0 -5 0z" fill="black"></path><path d="M527.5 570 a2.5 2.5 0 1 0 5 0 a2.5 2.5 0 1 0 -5 0zM547.5 530 a2.5 2.5 0 1 0 5 0 a2.5 2.5 0 1 0 -5 0z" fill="black"></path><path d="M107.5 570 a2.5 2.5 0 1 0 5 0 a2.5 2.5 0 1 0 -5 0zM127.5 530 a2.5 2.5 0 1 0 5 0 a2.5 2.5 0 1 0 -5 0z" fill="black"></path><path d="M407.5 370 a2.5 2.5 0 1 0 5 0 a2.5 2.5 0 1 0 -5 0zM327.5 230 a2.5 2.5 0 1 0 5 0 a2.5 2.5 0 1 0 -5 0z" fill="black"></path><path d="M867.5 670 a2.5 2.5 0 1 0 5 0 a2.5 2.5 0 1 0 -5 0zM807.5 610 a2.5 2.5 0 1 0 5 0 a2.5 2.5 0 1 0 -5 0z" fill="black"></path><path d="M427.5 610 a2.5 2.5 0 1 0 5 0 a2.5 2.5 0 1 0 -5 0zM507.5 530 a2.5 2.5 0 1 0 5 0 a2.5 2.5 0 1 0 -5 0z" fill="black"></path><path d="M887.5 670 a2.5 2.5 0 1 0 5 0 a2.5 2.5 0 1 0 -5 0zM847.5 610 a2.5 2.5 0 1 0 5 0 a2.5 2.5 0 1 0 -5 0z" fill="black"></path><path d="M1147.5 210 a2.5 2.5 0 1 0 5 0 a2.5 2.5 0 1 0 -5 0zM1247.5 110 a2.5 2.5 0 1 0 5 0 a2.5 2.5 0 1 0 -5 0z" fill="black"></path><path d="M867.5 270 a2.5 2.5 0 1 0 5 0 a2.5 2.5 0 1 0 -5 0zM927.5 250 a2.5 2.5 0 1 0 5 0 a2.5 2.5 0 1 0 -5 0z" fill="black"></path><path d="M587.5 150 a2.5 2.5 0 1 0 5 0 a2.5 2.5 0 1 0 -5 0zM647.5 190 a2.5 2.5 0 1 0 5 0 a2.5 2.5 0 1 0 -5 0z" fill="black"></path><path d="M647.5 350 a2.5 2.5 0 1 0 5 0 a2.5 2.5 0 1 0 -5 0zM507.5 170 a2.5 2.5 0 1 0 5 0 a2.5 2.5 0 1 0 -5 0z" fill="black"></path><path d="M1167.5 610 a2.5 2.5 0 1 0 5 0 a2.5 2.5 0 1 0 -5 0zM1127.5 590 a2.5 2.5 0 1 0 5 0 a2.5 2.5 0 1 0 -5 0z" fill="black"></path><path d="M47.5 550 a2.5 2.5 0 1 0 5 0 a2.5 2.5 0 1 0 -5 0zM87.5 590 a2.5 2.5 0 1 0 5 0 a2.5 2.5 0 1 0 -5 0z" fill="black"></path><path d="M707.5 690 a2.5 2.5 0 1 0 5 0 a2.5 2.5 0 1 0 -5 0zM647.5 710 a2.5 2.5 0 1 0 5 0 a2.5 2.5 0 1 0 -5 0z" fill="black"></path><path d="M687.5 610 a2.5 2.5 0 1 0 5 0 a2.5 2.5 0 1 0 -5 0zM607.5 690 a2.5 2.5 0 1 0 5 0 a2.5 2.5 0 1 0 -5 0z" fill="black"></path><path d="M347.5 390 a2.5 2.5 0 1 0 5 0 a2.5 2.5 0 1 0 -5 0zM307.5 350 a2.5 2.5 0 1 0 5 0 a2.5 2.5 0 1 0 -5 0z" fill="black"></path><path d="M367.5 290 a2.5 2.5 0 1 0 5 0 a2.5 2.5 0 1 0 -5 0zM407.5 350 a2.5 2.5 0 1 0 5 0 a2.5 2.5 0 1 0 -5 0z" fill="black"></path><path d="M187.5 650 a2.5 2.5 0 1 0 5 0 a2.5 2.5 0 1 0 -5 0zM127.5 690 a2.5 2.5 0 1 0 5 0 a2.5 2.5 0 1 0 -5 0z" fill="black"></path><path d="M1247.5 210 a2.5 2.5 0 1 0 5 0 a2.5 2.5 0 1 0 -5 0zM1187.5 130 a2.5 2.5 0 1 0 5 0 a2.5 2.5 0 1 0 -5 0z" fill="black"></path><path d="M547.5 230 a2.5 2.5 0 1 0 5 0 a2.5 2.5 0 1 0 -5 0zM527.5 210 a2.5 2.5 0 1 0 5 0 a2.5 2.5 0 1 0 -5 0z" fill="black"></path><path d="M747.5 170 a2.5 2.5 0 1 0 5 0 a2.5 2.5 0 1 0 -5 0zM807.5 170 a2.5 2.5 0 1 0 5 0 a2.5 2.5 0 1 0 -5 0z" fill="black"></path><path d="M227.5 550 a2.5 2.5 0 1 0 5 0 a2.5 2.5 0 1 0 -5 0zM167.5 510 a2.5 2.5 0 1 0 5 0 a2.5 2.5 0 1 0 -5 0z" fill="black"></path><path d="M107.5 370 a2.5 2.5 0 1 0 5 0 a2.5 2.5 0 1 0 -5 0zM87.5 290 a2.5 2.5 0 1 0 5 0 a2.5 2.5 0 1 0 -5 0z" fill="black"></path><path d="M267.5 210 a2.5 2.5 0 1 0 5 0 a2.5 2.5 0 1 0 -5 0zM287.5 250 a2.5 2.5 0 1 0 5 0 a2.5 2.5 0 1 0 -5 0z" fill="black"></path><path d="M47.5 190 a2.5 2.5 0 1 0 5 0 a2.5 2.5 0 1 0 -5 0zM27.5 390 a2.5 2.5 0 1 0 5 0 a2.5 2.5 0 1 0 -5 0z" fill="black"></path><path d="M87.5 230 a2.5 2.5 0 1 0 5 0 a2.5 2.5 0 1 0 -5 0zM87.5 150 a2.5 2.5 0 1 0 5 0 a2.5 2.5 0 1 0 -5 0z" fill="black"></path><path d="M1047.5 630 a2.5 2.5 0 1 0 5 0 a2.5 2.5 0 1 0 -5 0zM907.5 630 a2.5 2.5 0 1 0 5 0 a2.5 2.5 0 1 0 -5 0z" fill="black"></path><path d="M207.5 270 a2.5 2.5 0 1 0 5 0 a2.5 2.5 0 1 0 -5 0zM207.5 310 a2.5 2.5 0 1 0 5 0 a2.5 2.5 0 1 0 -5 0z" fill="black"></path><path d="M767.5 330 a2.5 2.5 0 1 0 5 0 a2.5 2.5 0 1 0 -5 0zM827.5 350 a2.5 2.5 0 1 0 5 0 a2.5 2.5 0 1 0 -5 0z" fill="black"></path><path d="M1147.5 250 a2.5 2.5 0 1 0 5 0 a2.5 2.5 0 1 0 -5 0zM1207.5 190 a2.5 2.5 0 1 0 5 0 a2.5 2.5 0 1 0 -5 0z" fill="black"></path><path d="M1107.5 50 a2.5 2.5 0 1 0 5 0 a2.5 2.5 0 1 0 -5 0zM1187.5 50 a2.5 2.5 0 1 0 5 0 a2.5 2.5 0 1 0 -5 0z" fill="black"></path><path d="M487.5 30 a2.5 2.5 0 1 0 5 0 a2.5 2.5 0 1 0 -5 0zM607.5 30 a2.5 2.5 0 1 0 5 0 a2.5 2.5 0 1 0 -5 0z" fill="black"></path><path d="M747.5 410 a2.5 2.5 0 1 0 5 0 a2.5 2.5 0 1 0 -5 0zM787.5 430 a2.5 2.5 0 1 0 5 0 a2.5 2.5 0 1 0 -5 0z" fill="black"></path><path d="M147.5 650 a2.5 2.5 0 1 0 5 0 a2.5 2.5 0 1 0 -5 0zM247.5 630 a2.5 2.5 0 1 0 5 0 a2.5 2.5 0 1 0 -5 0z" fill="black"></path><path d="M187.5 310 a2.5 2.5 0 1 0 5 0 a2.5 2.5 0 1 0 -5 0zM187.5 250 a2.5 2.5 0 1 0 5 0 a2.5 2.5 0 1 0 -5 0z" fill="black"></path><path d="M7.5 630 a2.5 2.5 0 1 0 5 0 a2.5 2.5 0 1 0 -5 0zM47.5 650 a2.5 2.5 0 1 0 5 0 a2.5 2.5 0 1 0 -5 0z" fill="black"></path><path d="M107.5 310 a2.5 2.5 0 1 0 5 0 a2.5 2.5 0 1 0 -5 0zM187.5 390 a2.5 2.5 0 1 0 5 0 a2.5 2.5 0 1 0 -5 0z" fill="black"></path><path d="M807.5 710 a2.5 2.5 0 1 0 5 0 a2.5 2.5 0 1 0 -5 0zM707.5 670 a2.5 2.5 0 1 0 5 0 a2.5 2.5 0 1 0 -5 0z" fill="black"></path><path d="M367.5 90 a2.5 2.5 0 1 0 5 0 a2.5 2.5 0 1 0 -5 0zM407.5 90 a2.5 2.5 0 1 0 5 0 a2.5 2.5 0 1 0 -5 0z" fill="black"></path><path d="M1247.5 230 a2.5 2.5 0 1 0 5 0 a2.5 2.5 0 1 0 -5 0zM1207.5 270 a2.5 2.5 0 1 0 5 0 a2.5 2.5 0 1 0 -5 0z" fill="black"></path><path d="M107.5 630 a2.5 2.5 0 1 0 5 0 a2.5 2.5 0 1 0 -5 0zM167.5 550 a2.5 2.5 0 1 0 5 0 a2.5 2.5 0 1 0 -5 0z" fill="black"></path><path d="M1127.5 10 a2.5 2.5 0 1 0 5 0 a2.5 2.5 0 1 0 -5 0zM1187.5 10 a2.5 2.5 0 1 0 5 0 a2.5 2.5 0 1 0 -5 0z" fill="black"></path><path d="M667.5 650 a2.5 2.5 0 1 0 5 0 a2.5 2.5 0 1 0 -5 0zM627.5 690 a2.5 2.5 0 1 0 5 0 a2.5 2.5 0 1 0 -5 0z" fill="black"></path><path d="M987.5 370 a2.5 2.5 0 1 0 5 0 a2.5 2.5 0 1 0 -5 0zM947.5 430 a2.5 2.5 0 1 0 5 0 a2.5 2.5 0 1 0 -5 0z" fill="black"></path><path d="M347.5 50 a2.5 2.5 0 1 0 5 0 a2.5 2.5 0 1 0 -5 0zM247.5 30 a2.5 2.5 0 1 0 5 0 a2.5 2.5 0 1 0 -5 0z" fill="black"></path><path d="M1047.5 490 a2.5 2.5 0 1 0 5 0 a2.5 2.5 0 1 0 -5 0zM1047.5 430 a2.5 2.5 0 1 0 5 0 a2.5 2.5 0 1 0 -5 0z" fill="black"></path><path d="M607.5 590 a2.5 2.5 0 1 0 5 0 a2.5 2.5 0 1 0 -5 0zM527.5 650 a2.5 2.5 0 1 0 5 0 a2.5 2.5 0 1 0 -5 0z" fill="black"></path><path d="M807.5 30 a2.5 2.5 0 1 0 5 0 a2.5 2.5 0 1 0 -5 0zM767.5 30 a2.5 2.5 0 1 0 5 0 a2.5 2.5 0 1 0 -5 0z" fill="black"></path><path d="M807.5 390 a2.5 2.5 0 1 0 5 0 a2.5 2.5 0 1 0 -5 0zM847.5 410 a2.5 2.5 0 1 0 5 0 a2.5 2.5 0 1 0 -5 0z" fill="black"></path><path d="M947.5 570 a2.5 2.5 0 1 0 5 0 a2.5 2.5 0 1 0 -5 0zM1027.5 610 a2.5 2.5 0 1 0 5 0 a2.5 2.5 0 1 0 -5 0z" fill="black"></path><path d="M47.5 170 a2.5 2.5 0 1 0 5 0 a2.5 2.5 0 1 0 -5 0zM27.5 230 a2.5 2.5 0 1 0 5 0 a2.5 2.5 0 1 0 -5 0z" fill="black"></path><path d="M67.5 470 a2.5 2.5 0 1 0 5 0 a2.5 2.5 0 1 0 -5 0zM7.5 610 a2.5 2.5 0 1 0 5 0 a2.5 2.5 0 1 0 -5 0z" fill="black"></path><path d="M987.5 150 a2.5 2.5 0 1 0 5 0 a2.5 2.5 0 1 0 -5 0zM1027.5 210 a2.5 2.5 0 1 0 5 0 a2.5 2.5 0 1 0 -5 0z" fill="black"></path><path d="M1047.5 50 a2.5 2.5 0 1 0 5 0 a2.5 2.5 0 1 0 -5 0zM1127.5 30 a2.5 2.5 0 1 0 5 0 a2.5 2.5 0 1 0 -5 0z" fill="black"></path><path d="M427.5 10 a2.5 2.5 0 1 0 5 0 a2.5 2.5 0 1 0 -5 0zM387.5 10 a2.5 2.5 0 1 0 5 0 a2.5 2.5 0 1 0 -5 0z" fill="black"></path><path d="M1187.5 610 a2.5 2.5 0 1 0 5 0 a2.5 2.5 0 1 0 -5 0zM1187.5 650 a2.5 2.5 0 1 0 5 0 a2.5 2.5 0 1 0 -5 0z" fill="black"></path><path d="M647.5 490 a2.5 2.5 0 1 0 5 0 a2.5 2.5 0 1 0 -5 0zM667.5 550 a2.5 2.5 0 1 0 5 0 a2.5 2.5 0 1 0 -5 0z" fill="black"></path><path d="M447.5 30 a2.5 2.5 0 1 0 5 0 a2.5 2.5 0 1 0 -5 0zM407.5 30 a2.5 2.5 0 1 0 5 0 a2.5 2.5 0 1 0 -5 0z" fill="black"></path><path d="M267.5 330 a2.5 2.5 0 1 0 5 0 a2.5 2.5 0 1 0 -5 0zM267.5 370 a2.5 2.5 0 1 0 5 0 a2.5 2.5 0 1 0 -5 0z" fill="black"></path><path d="M147.5 90 a2.5 2.5 0 1 0 5 0 a2.5 2.5 0 1 0 -5 0zM207.5 110 a2.5 2.5 0 1 0 5 0 a2.5 2.5 0 1 0 -5 0z" fill="black"></path><path d="M267.5 550 a2.5 2.5 0 1 0 5 0 a2.5 2.5 0 1 0 -5 0zM207.5 510 a2.5 2.5 0 1 0 5 0 a2.5 2.5 0 1 0 -5 0z" fill="black"></path><path d="M1147.5 270 a2.5 2.5 0 1 0 5 0 a2.5 2.5 0 1 0 -5 0zM1147.5 350 a2.5 2.5 0 1 0 5 0 a2.5 2.5 0 1 0 -5 0z" fill="black"></path><path d="M27.5 570 a2.5 2.5 0 1 0 5 0 a2.5 2.5 0 1 0 -5 0zM87.5 490 a2.5 2.5 0 1 0 5 0 a2.5 2.5 0 1 0 -5 0z" fill="black"></path><path d="M827.5 110 a2.5 2.5 0 1 0 5 0 a2.5 2.5 0 1 0 -5 0zM887.5 110 a2.5 2.5 0 1 0 5 0 a2.5 2.5 0 1 0 -5 0z" fill="black"></path><path d="M827.5 30 a2.5 2.5 0 1 0 5 0 a2.5 2.5 0 1 0 -5 0zM847.5 70 a2.5 2.5 0 1 0 5 0 a2.5 2.5 0 1 0 -5 0z" fill="black"></path><path d="M367.5 30 a2.5 2.5 0 1 0 5 0 a2.5 2.5 0 1 0 -5 0zM367.5 70 a2.5 2.5 0 1 0 5 0 a2.5 2.5 0 1 0 -5 0z" fill="black"></path><path d="M1027.5 710 a2.5 2.5 0 1 0 5 0 a2.5 2.5 0 1 0 -5 0zM1087.5 710 a2.5 2.5 0 1 0 5 0 a2.5 2.5 0 1 0 -5 0z" fill="black"></path><path d="M267.5 90 a2.5 2.5 0 1 0 5 0 a2.5 2.5 0 1 0 -5 0zM287.5 130 a2.5 2.5 0 1 0 5 0 a2.5 2.5 0 1 0 -5 0z" fill="black"></path><path d="M1067.5 10 a2.5 2.5 0 1 0 5 0 a2.5 2.5 0 1 0 -5 0zM1027.5 10 a2.5 2.5 0 1 0 5 0 a2.5 2.5 0 1 0 -5 0z" fill="black"></path><path d="M767.5 190 a2.5 2.5 0 1 0 5 0 a2.5 2.5 0 1 0 -5 0zM667.5 170 a2.5 2.5 0 1 0 5 0 a2.5 2.5 0 1 0 -5 0z" fill="black"></path><path d="M227.5 130 a2.5 2.5 0 1 0 5 0 a2.5 2.5 0 1 0 -5 0zM227.5 190 a2.5 2.5 0 1 0 5 0 a2.5 2.5 0 1 0 -5 0z" fill="black"></path><path d="M827.5 250 a2.5 2.5 0 1 0 5 0 a2.5 2.5 0 1 0 -5 0zM867.5 310 a2.5 2.5 0 1 0 5 0 a2.5 2.5 0 1 0 -5 0z" fill="black"></path><path d="M447.5 590 a2.5 2.5 0 1 0 5 0 a2.5 2.5 0 1 0 -5 0zM487.5 590 a2.5 2.5 0 1 0 5 0 a2.5 2.5 0 1 0 -5 0z" fill="black"></path><path d="M347.5 470 a2.5 2.5 0 1 0 5 0 a2.5 2.5 0 1 0 -5 0zM487.5 530 a2.5 2.5 0 1 0 5 0 a2.5 2.5 0 1 0 -5 0z" fill="black"></path><path d="M127.5 350 a2.5 2.5 0 1 0 5 0 a2.5 2.5 0 1 0 -5 0zM167.5 370 a2.5 2.5 0 1 0 5 0 a2.5 2.5 0 1 0 -5 0z" fill="black"></path><path d="M987.5 590 a2.5 2.5 0 1 0 5 0 a2.5 2.5 0 1 0 -5 0zM967.5 530 a2.5 2.5 0 1 0 5 0 a2.5 2.5 0 1 0 -5 0z" fill="black"></path><path d="M167.5 70 a2.5 2.5 0 1 0 5 0 a2.5 2.5 0 1 0 -5 0zM187.5 110 a2.5 2.5 0 1 0 5 0 a2.5 2.5 0 1 0 -5 0z" fill="black"></path><path d="M1167.5 210 a2.5 2.5 0 1 0 5 0 a2.5 2.5 0 1 0 -5 0zM1167.5 150 a2.5 2.5 0 1 0 5 0 a2.5 2.5 0 1 0 -5 0z" fill="black"></path><path d="M787.5 470 a2.5 2.5 0 1 0 5 0 a2.5 2.5 0 1 0 -5 0zM807.5 510 a2.5 2.5 0 1 0 5 0 a2.5 2.5 0 1 0 -5 0z" fill="black"></path><path d="M1147.5 430 a2.5 2.5 0 1 0 5 0 a2.5 2.5 0 1 0 -5 0zM1087.5 370 a2.5 2.5 0 1 0 5 0 a2.5 2.5 0 1 0 -5 0z" fill="black"></path><path d="M167.5 650 a2.5 2.5 0 1 0 5 0 a2.5 2.5 0 1 0 -5 0zM127.5 670 a2.5 2.5 0 1 0 5 0 a2.5 2.5 0 1 0 -5 0z" fill="black"></path><path d="M307.5 710 a2.5 2.5 0 1 0 5 0 a2.5 2.5 0 1 0 -5 0zM227.5 710 a2.5 2.5 0 1 0 5 0 a2.5 2.5 0 1 0 -5 0z" fill="black"></path><path d="M1067.5 250 a2.5 2.5 0 1 0 5 0 a2.5 2.5 0 1 0 -5 0zM1107.5 270 a2.5 2.5 0 1 0 5 0 a2.5 2.5 0 1 0 -5 0z" fill="black"></path><path d="M987.5 570 a2.5 2.5 0 1 0 5 0 a2.5 2.5 0 1 0 -5 0zM987.5 530 a2.5 2.5 0 1 0 5 0 a2.5 2.5 0 1 0 -5 0z" fill="black"></path><path d="M727.5 370 a2.5 2.5 0 1 0 5 0 a2.5 2.5 0 1 0 -5 0zM767.5 390 a2.5 2.5 0 1 0 5 0 a2.5 2.5 0 1 0 -5 0z" fill="black"></path><path d="M387.5 530 a2.5 2.5 0 1 0 5 0 a2.5 2.5 0 1 0 -5 0zM467.5 530 a2.5 2.5 0 1 0 5 0 a2.5 2.5 0 1 0 -5 0z" fill="black"></path><path d="M387.5 450 a2.5 2.5 0 1 0 5 0 a2.5 2.5 0 1 0 -5 0zM367.5 510 a2.5 2.5 0 1 0 5 0 a2.5 2.5 0 1 0 -5 0z" fill="black"></path><path d="M327.5 550 a2.5 2.5 0 1 0 5 0 a2.5 2.5 0 1 0 -5 0zM407.5 610 a2.5 2.5 0 1 0 5 0 a2.5 2.5 0 1 0 -5 0z" fill="black"></path><path d="M987.5 90 a2.5 2.5 0 1 0 5 0 a2.5 2.5 0 1 0 -5 0zM987.5 50 a2.5 2.5 0 1 0 5 0 a2.5 2.5 0 1 0 -5 0z" fill="black"></path><path d="M947.5 70 a2.5 2.5 0 1 0 5 0 a2.5 2.5 0 1 0 -5 0zM947.5 30 a2.5 2.5 0 1 0 5 0 a2.5 2.5 0 1 0 -5 0z" fill="black"></path><path d="M647.5 470 a2.5 2.5 0 1 0 5 0 a2.5 2.5 0 1 0 -5 0zM647.5 430 a2.5 2.5 0 1 0 5 0 a2.5 2.5 0 1 0 -5 0z" fill="black"></path><path d="M907.5 50 a2.5 2.5 0 1 0 5 0 a2.5 2.5 0 1 0 -5 0zM867.5 30 a2.5 2.5 0 1 0 5 0 a2.5 2.5 0 1 0 -5 0z" fill="black"></path><path d="M487.5 90 a2.5 2.5 0 1 0 5 0 a2.5 2.5 0 1 0 -5 0zM427.5 50 a2.5 2.5 0 1 0 5 0 a2.5 2.5 0 1 0 -5 0z" fill="black"></path><path d="M907.5 450 a2.5 2.5 0 1 0 5 0 a2.5 2.5 0 1 0 -5 0zM867.5 430 a2.5 2.5 0 1 0 5 0 a2.5 2.5 0 1 0 -5 0z" fill="black"></path><path d="M447.5 130 a2.5 2.5 0 1 0 5 0 a2.5 2.5 0 1 0 -5 0zM507.5 130 a2.5 2.5 0 1 0 5 0 a2.5 2.5 0 1 0 -5 0z" fill="black"></path><path d="M1067.5 90 a2.5 2.5 0 1 0 5 0 a2.5 2.5 0 1 0 -5 0zM1087.5 30 a2.5 2.5 0 1 0 5 0 a2.5 2.5 0 1 0 -5 0z" fill="black"></path><path d="M147.5 590 a2.5 2.5 0 1 0 5 0 a2.5 2.5 0 1 0 -5 0zM187.5 570 a2.5 2.5 0 1 0 5 0 a2.5 2.5 0 1 0 -5 0z" fill="black"></path><path d="M327.5 590 a2.5 2.5 0 1 0 5 0 a2.5 2.5 0 1 0 -5 0zM347.5 650 a2.5 2.5 0 1 0 5 0 a2.5 2.5 0 1 0 -5 0z" fill="black"></path><path d="M487.5 10 a2.5 2.5 0 1 0 5 0 a2.5 2.5 0 1 0 -5 0zM447.5 50 a2.5 2.5 0 1 0 5 0 a2.5 2.5 0 1 0 -5 0z" fill="black"></path><path d="M627.5 210 a2.5 2.5 0 1 0 5 0 a2.5 2.5 0 1 0 -5 0zM587.5 230 a2.5 2.5 0 1 0 5 0 a2.5 2.5 0 1 0 -5 0z" fill="black"></path><path d="M1167.5 70 a2.5 2.5 0 1 0 5 0 a2.5 2.5 0 1 0 -5 0zM1107.5 70 a2.5 2.5 0 1 0 5 0 a2.5 2.5 0 1 0 -5 0z" fill="black"></path><path d="M747.5 550 a2.5 2.5 0 1 0 5 0 a2.5 2.5 0 1 0 -5 0zM807.5 550 a2.5 2.5 0 1 0 5 0 a2.5 2.5 0 1 0 -5 0z" fill="black"></path><path d="M987.5 390 a2.5 2.5 0 1 0 5 0 a2.5 2.5 0 1 0 -5 0zM1027.5 370 a2.5 2.5 0 1 0 5 0 a2.5 2.5 0 1 0 -5 0z" fill="black"></path><path d="M967.5 90 a2.5 2.5 0 1 0 5 0 a2.5 2.5 0 1 0 -5 0zM967.5 150 a2.5 2.5 0 1 0 5 0 a2.5 2.5 0 1 0 -5 0z" fill="black"></path><path d="M347.5 290 a2.5 2.5 0 1 0 5 0 a2.5 2.5 0 1 0 -5 0zM327.5 250 a2.5 2.5 0 1 0 5 0 a2.5 2.5 0 1 0 -5 0z" fill="black"></path><path d="M287.5 590 a2.5 2.5 0 1 0 5 0 a2.5 2.5 0 1 0 -5 0zM387.5 610 a2.5 2.5 0 1 0 5 0 a2.5 2.5 0 1 0 -5 0z" fill="black"></path><path d="M147.5 190 a2.5 2.5 0 1 0 5 0 a2.5 2.5 0 1 0 -5 0zM127.5 230 a2.5 2.5 0 1 0 5 0 a2.5 2.5 0 1 0 -5 0z" fill="black"></path><path d="M707.5 30 a2.5 2.5 0 1 0 5 0 a2.5 2.5 0 1 0 -5 0zM667.5 90 a2.5 2.5 0 1 0 5 0 a2.5 2.5 0 1 0 -5 0z" fill="black"></path><path d="M1027.5 130 a2.5 2.5 0 1 0 5 0 a2.5 2.5 0 1 0 -5 0zM1047.5 190 a2.5 2.5 0 1 0 5 0 a2.5 2.5 0 1 0 -5 0z" fill="black"></path><path d="M1047.5 70 a2.5 2.5 0 1 0 5 0 a2.5 2.5 0 1 0 -5 0zM1027.5 110 a2.5 2.5 0 1 0 5 0 a2.5 2.5 0 1 0 -5 0z" fill="black"></path><path d="M867.5 590 a2.5 2.5 0 1 0 5 0 a2.5 2.5 0 1 0 -5 0zM927.5 610 a2.5 2.5 0 1 0 5 0 a2.5 2.5 0 1 0 -5 0z" fill="black"></path><path d="M767.5 530 a2.5 2.5 0 1 0 5 0 a2.5 2.5 0 1 0 -5 0zM747.5 490 a2.5 2.5 0 1 0 5 0 a2.5 2.5 0 1 0 -5 0z" fill="black"></path><path d="M627.5 370 a2.5 2.5 0 1 0 5 0 a2.5 2.5 0 1 0 -5 0zM627.5 310 a2.5 2.5 0 1 0 5 0 a2.5 2.5 0 1 0 -5 0z" fill="black"></path><path d="M827.5 290 a2.5 2.5 0 1 0 5 0 a2.5 2.5 0 1 0 -5 0zM807.5 250 a2.5 2.5 0 1 0 5 0 a2.5 2.5 0 1 0 -5 0z" fill="black"></path><path d="M27.5 170 a2.5 2.5 0 1 0 5 0 a2.5 2.5 0 1 0 -5 0zM27.5 130 a2.5 2.5 0 1 0 5 0 a2.5 2.5 0 1 0 -5 0z" fill="black"></path></mask></defs></svg>